<svg width="88" height="56" viewBox="0 0 88 56" fill="none" xmlns="http://www.w3.org/2000/svg">
<g clip-path="url(#clip0_8604_7864)">
<path d="M53.072 18.48H53.3173V16.8107H53.9467V16.5867H52.448V16.8107H53.072V18.48ZM55.6533 16.592L55.2213 17.904C55.1733 18.0373 55.1413 18.1387 55.12 18.208C55.0987 18.144 55.072 18.0533 55.0293 17.9307L54.5813 16.592H54.2027V18.4853H54.4427V16.8747L54.992 18.4853H55.216L55.7653 16.9013V18.4853H56.0053V16.592H55.6533ZM27.984 21.0987C25.5253 21.0987 23.5307 19.104 23.5307 16.6453C23.5307 14.1867 25.5253 12.192 27.984 12.192C30.4427 12.192 32.4373 14.1867 32.4373 16.6453C32.4373 19.104 30.4427 21.0987 27.984 21.0987ZM27.984 19.808C29.7227 19.808 31.136 18.3947 31.136 16.656C31.136 14.9173 29.7227 13.504 27.984 13.504C26.2453 13.504 24.832 14.9173 24.832 16.656C24.832 18.3947 26.2453 19.808 27.984 19.808ZM25.056 33.392C25.936 34.3093 26.3787 35.6267 26.3787 37.344C26.3787 37.68 26.368 37.9413 26.352 38.1173H18.976C18.976 39.5307 19.3067 40.64 19.9787 41.4453C20.6507 42.2507 21.536 42.6507 22.64 42.6507C23.744 42.6507 24.7787 42.272 25.7227 41.5147L25.9627 41.6853L25.4347 43.0613C24.4053 43.7813 23.088 44.144 21.4667 44.144C19.5893 44.144 18.1227 43.5947 17.0667 42.4907C16.0107 41.392 15.4773 39.8613 15.4773 37.8987C15.4773 36.1653 15.9947 34.752 17.04 33.6587C18.08 32.5653 19.4827 32.016 21.248 32.016C22.9013 32.016 24.1653 32.4747 25.0507 33.392H25.056ZM23.0773 36.3573C23.0773 34.1547 22.448 33.056 21.1947 33.056C19.7173 33.056 18.976 34.2773 18.976 36.72V36.9333H23.0507C23.0507 36.8373 23.0613 36.7253 23.0773 36.5973V36.3573ZM38.544 42.9387H38.6187V43.5413C37.7653 43.8773 36.9227 44.048 36.0853 44.048C34.912 44.048 34.192 43.4773 33.9147 42.336C33.2107 43.5413 32.1227 44.144 30.6613 44.144C29.648 44.144 28.8533 43.8453 28.272 43.2533C27.696 42.6613 27.4027 41.84 27.4027 40.7947C27.4027 39.3333 28.2453 38.3147 29.936 37.7333C30.64 37.5093 31.3547 37.2853 32.0693 37.056C32.784 36.832 33.344 36.5813 33.744 36.3093C33.76 36.2133 33.7707 36.0747 33.7707 35.8987C33.7707 35.1787 33.5627 34.5973 33.1413 34.1653C32.7253 33.7333 32.1653 33.5147 31.4773 33.5147C30.416 33.5147 29.5147 34.1333 28.7787 35.3707C28.5707 34.7307 28.3947 34.2133 28.2453 33.8293C29.6267 32.608 31.056 32 32.5387 32C35.5253 32 37.0187 33.2853 37.0187 35.856V35.9787L36.944 40.6293C36.944 41.5467 37.0347 42.1493 37.2107 42.4373C37.4187 42.7733 37.8613 42.944 38.5387 42.944L38.544 42.9387ZM33.7707 37.5147C32.6773 37.7387 31.888 38.08 31.3973 38.5387C30.9067 38.9973 30.6613 39.6427 30.6613 40.48C30.6613 41.8613 31.152 42.5547 32.1333 42.5547C33.2267 42.5547 33.7707 41.808 33.7707 40.3147V37.52V37.5147ZM16.592 30.56C16.592 34.2133 14.176 36.0427 9.33867 36.0427H8.46933V39.92C8.46933 40.3253 8.56533 41.6373 8.75733 43.8507H4.37867C4.592 41.5627 4.69867 38.4747 4.69867 34.8533C4.69867 31.232 4.592 28.224 4.37867 25.8293C5.01333 25.8987 5.62667 25.936 6.224 25.936C6.592 25.936 7.264 25.92 8.22933 25.8827C9.19467 25.8453 9.98933 25.8293 10.6027 25.8293C12.6453 25.8293 14.1493 26.208 15.1253 26.96C16.1013 27.7173 16.592 28.912 16.592 30.56ZM11.488 33.6907C12.1067 33.0773 12.4213 32.0747 12.4213 30.6827C12.4213 28.416 11.4347 27.28 9.46133 27.28C9.30133 27.28 9.03467 27.296 8.64533 27.3333C8.52267 28.48 8.464 29.456 8.464 30.2613V34.6133C9.86133 34.6133 10.8693 34.3093 11.4933 33.6907H11.488ZM43.136 35.392H43.0187C43.0187 34.736 43.056 33.7067 43.136 32.3093H39.7867C39.8987 33.5627 39.9573 35.4827 39.9573 38.0693C39.9573 40.336 39.904 42.2613 39.7867 43.856H43.3547C43.2107 42.2347 43.136 40.4907 43.136 38.624C43.136 36.3413 43.8933 35.2 45.4027 35.2C45.8027 35.2 46.3253 35.3173 46.9707 35.5627V32.0213H46.8533C44.9707 32.0213 43.7333 33.1467 43.1413 35.3973L43.136 35.392ZM48.0053 25.8027C48.1333 28.368 48.1973 31.3973 48.1973 34.8747C48.1973 38.352 48.1333 41.1733 48.0053 43.8507H51.5947C51.4667 41.2853 51.4027 38.2613 51.4027 34.7787C51.4027 31.296 51.4667 28.48 51.5947 25.8027H48.0053ZM38.9227 8.64533L27.984 0L0 22.1227H8.59733L27.984 6.88533L47.3707 22.1227H55.968L45.536 13.872L38.9227 8.64533Z" fill="#1C4C75"/>
<path d="M59.7224 35.0829H57.0664V43.7603H58.5971V41.2429H59.4237C62.0371 41.2429 63.1891 39.9843 63.1891 38.1709C63.1891 36.3576 62.0264 35.0829 59.7224 35.0829ZM59.6104 39.8829H58.5971V36.4909H59.6104C61.0557 36.4909 61.5357 37.2163 61.5357 38.1709C61.5357 39.1256 61.0397 39.8883 59.6104 39.8883V39.8829ZM74.1277 38.1709C74.1277 36.3576 72.9651 35.0829 70.6611 35.0829H67.8824V43.7603H69.4131V41.2429H70.3624C70.6344 41.2429 70.8957 41.2323 71.1411 41.2056L72.9811 43.7603H74.7677L72.5437 40.8216C73.6317 40.3149 74.1224 39.3656 74.1224 38.1656L74.1277 38.1709ZM70.5491 39.8829H69.4131V36.4909H70.5491C71.9944 36.4909 72.4744 37.2163 72.4744 38.1709C72.4744 39.1256 71.9784 39.8883 70.5491 39.8883V39.8829ZM83.3384 34.9336C80.7357 34.9336 78.7091 36.8483 78.7091 39.4136C78.7091 41.9789 80.6824 43.8936 83.3384 43.8936C85.9944 43.8936 87.9784 42.0056 87.9784 39.4136C87.9784 36.8216 86.0264 34.9336 83.3384 34.9336ZM83.3491 42.5496C81.6691 42.5496 80.3624 41.2163 80.3624 39.4403C80.3624 37.6643 81.6104 36.3203 83.3491 36.3203C85.0877 36.3203 86.3357 37.6749 86.3357 39.4403C86.3357 41.2056 85.0291 42.5496 83.3491 42.5496Z" fill="#747878"/>
</g>
<defs>
<clipPath id="clip0_8604_7864">
<rect width="88" height="56" fill="white"/>
</clipPath>
</defs>
</svg>
