<svg width="32" height="32" viewBox="0 0 32 32" fill="none" xmlns="http://www.w3.org/2000/svg">
<mask id="mask0_6958_27551" style="mask-type:alpha" maskUnits="userSpaceOnUse" x="0" y="0" width="32" height="32">
<rect width="32" height="32" fill="#D9D9D9"/>
</mask>
<g mask="url(#mask0_6958_27551)">
<path d="M16.0007 29.3333C15.4229 29.3333 14.9007 29.1944 14.434 28.9167C13.9673 28.6389 13.6007 28.2667 13.334 27.8C12.6007 27.8 11.9729 27.5389 11.4507 27.0167C10.9284 26.4944 10.6673 25.8667 10.6673 25.1333V20.4C9.35621 19.5333 8.30621 18.3889 7.51732 16.9667C6.72843 15.5444 6.33398 14 6.33398 12.3333C6.33398 9.64444 7.27287 7.36111 9.15065 5.48333C11.0284 3.60555 13.3118 2.66666 16.0007 2.66666C18.6895 2.66666 20.9729 3.60555 22.8507 5.48333C24.7284 7.36111 25.6673 9.64444 25.6673 12.3333C25.6673 14.0444 25.2729 15.6 24.484 17C23.6951 18.4 22.6451 19.5333 21.334 20.4V25.1333C21.334 25.8667 21.0729 26.4944 20.5507 27.0167C20.0284 27.5389 19.4007 27.8 18.6673 27.8C18.4007 28.2667 18.034 28.6389 17.5673 28.9167C17.1007 29.1944 16.5784 29.3333 16.0007 29.3333ZM13.334 25.1333H18.6673V23.9333H13.334V25.1333ZM13.334 22.6H18.6673V21.3333H13.334V22.6ZM13.0673 18.6667H15.0007V15.0667L12.7673 12.8333C12.5673 12.6333 12.4673 12.4 12.4673 12.1333C12.4673 11.8667 12.5673 11.6333 12.7673 11.4333C12.9673 11.2333 13.2007 11.1333 13.4673 11.1333C13.734 11.1333 13.9673 11.2333 14.1673 11.4333L16.0007 13.2667L17.834 11.4333C18.034 11.2333 18.2673 11.1333 18.534 11.1333C18.8007 11.1333 19.034 11.2333 19.234 11.4333C19.434 11.6333 19.534 11.8667 19.534 12.1333C19.534 12.4 19.434 12.6333 19.234 12.8333L17.0007 15.0667V18.6667H18.934C20.134 18.0889 21.1118 17.2389 21.8673 16.1167C22.6229 14.9944 23.0007 13.7333 23.0007 12.3333C23.0007 10.3778 22.3229 8.72222 20.9673 7.36666C19.6118 6.01111 17.9562 5.33333 16.0007 5.33333C14.0451 5.33333 12.3895 6.01111 11.034 7.36666C9.67843 8.72222 9.00065 10.3778 9.00065 12.3333C9.00065 13.7333 9.37843 14.9944 10.134 16.1167C10.8895 17.2389 11.8673 18.0889 13.0673 18.6667Z" fill="#2E3132"/>
</g>
</svg>
