<svg width="17" height="19" viewBox="0 0 17 19" fill="none" xmlns="http://www.w3.org/2000/svg">
<path d="M0 16.1458V6.77083C0 6.44097 0.0737847 6.12847 0.221354 5.83333C0.368924 5.53819 0.572917 5.29514 0.833333 5.10417L7.08333 0.416667C7.44792 0.138889 7.86458 0 8.33333 0C8.80208 0 9.21875 0.138889 9.58333 0.416667L15.8333 5.10417C16.0938 5.29514 16.2977 5.53819 16.4453 5.83333C16.5929 6.12847 16.6667 6.44097 16.6667 6.77083V16.1458C16.6667 16.7188 16.4627 17.2092 16.0547 17.6172C15.6467 18.0252 15.1562 18.2292 14.5833 18.2292H11.4583C11.1632 18.2292 10.9158 18.1293 10.7161 17.9297C10.5165 17.73 10.4167 17.4826 10.4167 17.1875V11.9792C10.4167 11.684 10.3168 11.4366 10.1172 11.237C9.91753 11.0373 9.67014 10.9375 9.375 10.9375H7.29167C6.99653 10.9375 6.74913 11.0373 6.54948 11.237C6.34983 11.4366 6.25 11.684 6.25 11.9792V17.1875C6.25 17.4826 6.15017 17.73 5.95052 17.9297C5.75087 18.1293 5.50347 18.2292 5.20833 18.2292H2.08333C1.51042 18.2292 1.01997 18.0252 0.611979 17.6172C0.203993 17.2092 0 16.7188 0 16.1458Z" fill="#2E3132"/>
</svg>
