<svg width="105" height="105" viewBox="0 0 105 105" fill="none" xmlns="http://www.w3.org/2000/svg">
<g style="mix-blend-mode:luminosity" opacity="0.5">
<g filter="url(#filter0_d_6688_46389)">
<path d="M51.2617 98.7588C77.7714 98.7588 99.2617 77.2685 99.2617 50.7588C99.2617 24.2491 77.7714 2.75879 51.2617 2.75879C24.7521 2.75879 3.26172 24.2491 3.26172 50.7588C3.26172 77.2685 24.7521 98.7588 51.2617 98.7588Z" fill="#BD8A34"/>
<path d="M51.2617 98.7588C77.7714 98.7588 99.2617 77.2685 99.2617 50.7588C99.2617 24.2491 77.7714 2.75879 51.2617 2.75879C24.7521 2.75879 3.26172 24.2491 3.26172 50.7588C3.26172 77.2685 24.7521 98.7588 51.2617 98.7588Z" stroke="#7F5313" stroke-width="0.482909" stroke-miterlimit="10"/>
</g>
<g filter="url(#filter1_d_6688_46389)">
<path d="M51.2624 86.3217C70.9034 86.3217 86.8256 70.3995 86.8256 50.7585C86.8256 31.1175 70.9034 15.1953 51.2624 15.1953C31.6214 15.1953 15.6992 31.1175 15.6992 50.7585C15.6992 70.3995 31.6214 86.3217 51.2624 86.3217Z" fill="#E8A246"/>
<path d="M51.2624 86.3217C70.9034 86.3217 86.8256 70.3995 86.8256 50.7585C86.8256 31.1175 70.9034 15.1953 51.2624 15.1953C31.6214 15.1953 15.6992 31.1175 15.6992 50.7585C15.6992 70.3995 31.6214 86.3217 51.2624 86.3217Z" stroke="#7F5313" stroke-width="0.482909" stroke-miterlimit="10"/>
</g>
<path d="M24.2848 18.9953C24.3983 18.8986 24.4855 18.8005 24.5463 18.7011C24.6059 18.6001 24.6411 18.5 24.6519 18.4008C24.6629 18.2987 24.6502 18.1984 24.6138 18.0997C24.5761 17.9995 24.5174 17.9026 24.4377 17.809C24.3619 17.7201 24.2795 17.6513 24.1905 17.6027C24.1015 17.5541 24.0078 17.528 23.9095 17.5244C23.8112 17.5209 23.7087 17.5419 23.6021 17.5877C23.4942 17.632 23.3828 17.7031 23.2677 17.8011L22.8052 18.195L23.8223 19.3892L24.2848 18.9953ZM22.8601 17.3225C23.0825 17.133 23.2973 16.9951 23.5043 16.9088C23.7113 16.8225 23.9076 16.781 24.0931 16.7845C24.2787 16.7879 24.4523 16.8332 24.6139 16.9205C24.7771 17.0065 24.9247 17.1269 25.0567 17.2819C25.1938 17.4429 25.2931 17.6138 25.3544 17.7946C25.4143 17.9737 25.4318 18.1574 25.4067 18.3455C25.3816 18.5336 25.3107 18.7237 25.1938 18.9159C25.0784 19.1067 24.9126 19.2943 24.6963 19.4785L24.2338 19.8724L25.2313 21.0436L24.6123 21.5707L21.7786 18.2435L22.8601 17.3225Z" fill="white"/>
<path d="M26.5871 15.2655L27.2697 16.2669L28.5334 15.4055L28.8857 15.9225L27.6221 16.7839L28.3183 17.8053L29.9216 16.7124L30.2876 17.2493L28.01 18.8019L25.5485 15.1906L27.8261 13.6381L28.1904 14.1726L26.5871 15.2655Z" fill="white"/>
<path d="M32.7235 14.0064L31.5753 12.9681C31.522 12.9232 31.4623 12.8682 31.396 12.8029C31.3297 12.7376 31.2602 12.6661 31.1873 12.5883C31.212 12.6914 31.2331 12.7897 31.2504 12.883C31.2667 12.9746 31.2788 13.0559 31.2866 13.127L31.4934 14.6543L32.7235 14.0064ZM34.7628 14.7973L34.2066 15.0903C34.1442 15.1231 34.0854 15.1347 34.0302 15.1251C33.9741 15.1137 33.924 15.09 33.88 15.0539L33.1756 14.4172L31.5739 15.261L31.7006 16.202C31.708 16.2505 31.7001 16.3025 31.6769 16.358C31.6538 16.4134 31.6119 16.4571 31.5513 16.4891L30.9897 16.7849L30.4743 12.1167L31.207 11.7307L34.7628 14.7973Z" fill="white"/>
<path d="M36.185 11.7716C36.328 11.7168 36.4453 11.6514 36.537 11.5752C36.6305 11.4984 36.6992 11.4159 36.7432 11.3279C36.7883 11.2372 36.8112 11.1421 36.8119 11.0426C36.8126 10.9431 36.7931 10.8416 36.7534 10.7381C36.6741 10.5311 36.5445 10.3985 36.3646 10.3401C36.1866 10.281 35.9574 10.3052 35.6771 10.4126L35.1917 10.5987L35.7109 11.9533L36.185 11.7716ZM38.9578 13.1624L38.272 13.4252C38.1422 13.475 38.0287 13.4602 37.9314 13.381L36.5727 12.4031C36.5219 12.3664 36.4728 12.3453 36.4254 12.3398C36.3798 12.3335 36.3194 12.3448 36.2442 12.3736L35.9196 12.498L36.5307 14.0926L35.7716 14.3835L34.2075 10.3026L35.4521 9.82562C35.7287 9.71962 35.9769 9.65792 36.1968 9.64053C36.4179 9.62054 36.6113 9.63813 36.777 9.6933C36.9446 9.74774 37.0863 9.83586 37.202 9.95766C37.317 10.0776 37.4077 10.2241 37.474 10.3972C37.5267 10.5345 37.5557 10.6723 37.5612 10.8104C37.5686 10.9479 37.5528 11.0812 37.5139 11.2105C37.4768 11.3391 37.4163 11.4626 37.3322 11.5812C37.2501 11.699 37.1458 11.8069 37.0194 11.905C37.0791 11.9144 37.1373 11.931 37.1938 11.9547C37.2496 11.9764 37.3045 12.0072 37.3586 12.0469L38.9578 13.1624Z" fill="white"/>
<path d="M42.3359 11.5569L42.5084 12.2053L40.0345 12.8636L38.9108 8.64014L39.6964 8.43109L40.6477 12.0061L42.3359 11.5569Z" fill="white"/>
<path d="M48.545 10.292C48.5891 10.2874 48.6299 10.3004 48.6675 10.331L49.0218 10.6439C48.8679 10.8806 48.6677 11.0703 48.4211 11.2132C48.1765 11.3559 47.8738 11.4458 47.5131 11.4829C47.1904 11.5162 46.8941 11.491 46.6241 11.4074C46.3562 11.3236 46.121 11.1928 45.9183 11.0152C45.7157 10.8376 45.5513 10.6175 45.425 10.355C45.3007 10.0923 45.2219 9.79965 45.1887 9.47696C45.1551 9.15025 45.1764 8.84624 45.2528 8.56492C45.3289 8.2816 45.4511 8.03203 45.6193 7.8162C45.7895 7.60017 46.0003 7.42451 46.2517 7.28924C46.5029 7.15196 46.7878 7.06691 47.1065 7.03409C47.4232 7.00147 47.7092 7.02469 47.9644 7.10373C48.2217 7.18257 48.4452 7.29729 48.6349 7.4479L48.403 7.85158C48.3895 7.87728 48.3706 7.90049 48.3464 7.92122C48.3242 7.94173 48.2911 7.95426 48.247 7.9588C48.2169 7.9619 48.185 7.95708 48.1513 7.94435C48.1174 7.92961 48.0801 7.91218 48.0396 7.89205C47.9988 7.86991 47.9518 7.84639 47.8986 7.82149C47.8454 7.79659 47.7845 7.77551 47.7159 7.75827C47.647 7.73903 47.5677 7.72593 47.4779 7.71898C47.3898 7.70982 47.2887 7.71112 47.1744 7.72288C46.98 7.74291 46.8052 7.79635 46.6501 7.88322C46.4968 7.96789 46.3688 8.08234 46.2662 8.2266C46.1633 8.36886 46.0897 8.53849 46.0451 8.73551C46.0004 8.93052 45.9905 9.14929 46.0155 9.39181C46.0407 9.63634 46.0972 9.8503 46.1849 10.0337C46.2747 10.2169 46.3854 10.3675 46.5171 10.4856C46.6487 10.6037 46.7984 10.6896 46.9659 10.7432C47.1333 10.7949 47.3092 10.8112 47.4936 10.7922C47.6038 10.7808 47.7024 10.7646 47.7894 10.7435C47.8783 10.7222 47.9585 10.6947 48.03 10.661C48.1035 10.6271 48.1712 10.5867 48.2332 10.5398C48.2971 10.4907 48.3589 10.4327 48.4189 10.3657C48.4371 10.3456 48.4567 10.3294 48.4777 10.3171C48.4985 10.3028 48.5209 10.2944 48.545 10.292Z" fill="white"/>
<path d="M51.1581 7.53164L51.1384 8.74346L52.6676 8.76828L52.6574 9.39383L51.1283 9.36901L51.1082 10.605L53.0483 10.6365L53.0378 11.2862L50.2817 11.2415L50.3527 6.87169L53.1087 6.91643L53.0982 7.56313L51.1581 7.53164Z" fill="white"/>
<path d="M55.9824 9.23301C56.1345 9.25061 56.2688 9.24688 56.3853 9.22182C56.5038 9.19699 56.6029 9.15572 56.6826 9.098C56.7645 9.03852 56.8288 8.96482 56.8755 8.87692C56.9222 8.78901 56.9519 8.69002 56.9646 8.57993C56.9901 8.35976 56.9366 8.18217 56.8042 8.04718C56.6737 7.91241 56.4594 7.82777 56.1611 7.79326L55.6447 7.73351L55.478 9.17465L55.9824 9.23301ZM57.7967 11.7492L57.0671 11.6648C56.929 11.6488 56.8352 11.5832 56.7856 11.4679L56.0338 9.97221C56.0058 9.91623 55.972 9.8748 55.9325 9.84792C55.8951 9.82127 55.8363 9.80331 55.7562 9.79405L55.4109 9.7541L55.2147 11.4504L54.407 11.357L54.9094 7.01558L56.2334 7.16877C56.5276 7.20282 56.7762 7.26302 56.9792 7.34939C57.1844 7.43398 57.3477 7.53908 57.4691 7.66469C57.5925 7.79052 57.6773 7.9342 57.7235 8.09574C57.7699 8.25527 57.7825 8.4271 57.7612 8.61125C57.7443 8.75736 57.7063 8.89292 57.6472 9.01793C57.5901 9.14317 57.5144 9.25408 57.4201 9.35067C57.3277 9.44749 57.2169 9.52898 57.0875 9.59515C56.9602 9.66155 56.8178 9.70897 56.6603 9.7374C56.7089 9.77345 56.7528 9.81503 56.7919 9.86216C56.8313 9.90729 56.8658 9.95996 56.8953 10.0202L57.7967 11.7492Z" fill="white"/>
<path d="M62.5754 9.01929L61.2906 8.72667L60.4684 12.3367L59.6757 12.1561L60.4978 8.54613L59.213 8.25351L59.3613 7.60224L62.7237 8.36802L62.5754 9.01929Z" fill="white"/>
<path d="M63.7121 13.2597L62.9349 13.0107L64.2688 8.84883L65.0459 9.09788L63.7121 13.2597Z" fill="white"/>
<path d="M67.4458 10.6673L66.9499 11.8621L68.4629 12.49L68.2138 13.0902L66.7008 12.4622L66.0184 14.1064L65.2647 13.7936L66.94 9.7571L69.4858 10.8137L69.2379 11.4111L67.4458 10.6673Z" fill="white"/>
<path d="M69.7239 15.8309L68.9989 15.4564L71.0047 11.5735L71.7297 11.9481L69.7239 15.8309Z" fill="white"/>
<path d="M73.8406 13.894L73.1964 14.9206L74.4918 15.7335L74.1592 16.2635L72.8638 15.4506L72.2068 16.4976L73.8503 17.529L73.5049 18.0794L71.1702 16.6143L73.4932 12.9124L75.828 14.3776L75.4842 14.9254L73.8406 13.894Z" fill="white"/>
<path d="M79.0073 19.5837C78.8063 19.8332 78.5801 20.0288 78.3288 20.1704C78.0775 20.3121 77.8159 20.3976 77.5439 20.4268C77.2719 20.4561 76.9965 20.427 76.7177 20.3395C76.4389 20.2519 76.17 20.1039 75.9112 19.8953L74.6144 18.8504L77.3564 15.4473L78.6532 16.4922C78.9121 16.7008 79.1133 16.9328 79.2569 17.1882C79.4017 17.442 79.4887 17.7049 79.518 17.9769C79.5485 18.2473 79.5213 18.5203 79.4363 18.796C79.3513 19.0717 79.2083 19.3343 79.0073 19.5837ZM78.3577 19.0604C78.5082 18.8736 78.6177 18.6863 78.6863 18.4984C78.7578 18.3101 78.7875 18.1271 78.7756 17.9493C78.7664 17.7711 78.7173 17.6009 78.6282 17.4385C78.5406 17.2774 78.4137 17.1298 78.2474 16.9958L77.5861 16.463L75.6556 18.8588L76.317 19.3917C76.4833 19.5257 76.6545 19.6183 76.8305 19.6696C77.0081 19.7221 77.1843 19.7347 77.359 19.7073C77.5366 19.6796 77.7091 19.6116 77.8766 19.5033C78.0469 19.3947 78.2073 19.2471 78.3577 19.0604Z" fill="white"/>
<path d="M45.79 92.1516L45.4809 93.8925C45.2341 94.0144 44.98 94.0911 44.7187 94.1224C44.4596 94.1521 44.1892 94.142 43.9075 94.092C43.5564 94.0296 43.2477 93.9185 42.9814 93.7587C42.717 93.5992 42.501 93.4042 42.3331 93.1739C42.1673 92.9439 42.0538 92.6843 41.9926 92.3951C41.9314 92.1059 41.9291 91.8016 41.9858 91.4822C42.0433 91.1588 42.1485 90.8716 42.3016 90.6204C42.4546 90.3693 42.6447 90.1636 42.8716 90.0034C43.1006 89.8435 43.3624 89.7344 43.6572 89.6763C43.952 89.6181 44.271 89.6195 44.6142 89.6805C44.7888 89.7115 44.949 89.7543 45.0948 89.8088C45.2427 89.8637 45.3767 89.9274 45.4968 89.9999C45.6193 90.0708 45.7279 90.1504 45.8227 90.2389C45.9175 90.3274 46.0022 90.4212 46.0766 90.5204L45.783 90.8427C45.7371 90.8939 45.6841 90.9213 45.6241 90.925C45.5645 90.9267 45.5046 90.9007 45.4446 90.8471C45.3858 90.7978 45.327 90.7484 45.2683 90.6991C45.2095 90.6498 45.1419 90.604 45.0655 90.5618C44.9911 90.5199 44.9049 90.4811 44.8068 90.4453C44.7108 90.4098 44.5973 90.3804 44.4664 90.3572C44.2541 90.3195 44.0554 90.321 43.8701 90.3618C43.6868 90.4029 43.5228 90.4792 43.3782 90.5906C43.2336 90.702 43.112 90.8452 43.0134 91.02C42.9148 91.1949 42.8451 91.3974 42.8042 91.6275C42.7605 91.8735 42.7561 92.0999 42.791 92.3067C42.8283 92.5118 42.8984 92.6931 43.0014 92.8505C43.1068 93.0063 43.2434 93.136 43.4112 93.2395C43.5794 93.341 43.7746 93.4114 43.9968 93.4509C44.1555 93.4791 44.3004 93.4874 44.4313 93.4759C44.5623 93.4644 44.6924 93.4404 44.8217 93.404L44.9601 92.6243L44.4185 92.5282C44.367 92.519 44.3288 92.4979 44.3039 92.4648C44.2814 92.4301 44.2739 92.392 44.2813 92.3503L44.3616 91.898L45.79 92.1516Z" fill="white"/>
<path d="M51.6977 92.5249C51.6843 92.845 51.6185 93.1397 51.5003 93.409C51.3842 93.6764 51.2254 93.9057 51.0238 94.0969C50.8221 94.2881 50.5831 94.4344 50.3066 94.5358C50.0302 94.6351 49.7259 94.6778 49.3937 94.6639C49.0635 94.65 48.7649 94.5821 48.4978 94.4599C48.2307 94.3358 48.0037 94.17 47.8168 93.9625C47.6319 93.7551 47.4918 93.5133 47.3965 93.237C47.3013 92.9588 47.2603 92.6596 47.2738 92.3395C47.2872 92.0194 47.3529 91.7257 47.471 91.4584C47.5892 91.1891 47.7491 90.9588 47.9507 90.7676C48.1543 90.5765 48.3944 90.4313 48.6708 90.332C48.9473 90.2306 49.2506 90.1869 49.5808 90.2007C49.8022 90.21 50.0095 90.2449 50.2026 90.3054C50.3957 90.3639 50.5719 90.4439 50.731 90.5454C50.8901 90.6448 51.0313 90.7647 51.1545 90.9049C51.2798 91.0433 51.3843 91.1969 51.468 91.3658C51.5516 91.5347 51.6126 91.7167 51.6508 91.9119C51.691 92.1072 51.7066 92.3115 51.6977 92.5249ZM50.8672 92.4901C50.8773 92.2506 50.8541 92.0348 50.7976 91.8429C50.7412 91.6489 50.6564 91.483 50.5432 91.3452C50.4299 91.2073 50.2893 91.0996 50.1211 91.022C49.9549 90.9444 49.7652 90.9012 49.5518 90.8922C49.3384 90.8833 49.1446 90.9105 48.9706 90.9737C48.7985 91.0371 48.6493 91.1327 48.523 91.2605C48.3986 91.3884 48.3002 91.5466 48.2278 91.7352C48.1554 91.9217 48.1142 92.1348 48.1042 92.3743C48.0942 92.6139 48.1173 92.8306 48.1737 93.0246C48.2302 93.2165 48.3151 93.3814 48.4283 93.5193C48.5436 93.6552 48.6843 93.7619 48.8505 93.8395C49.0186 93.9171 49.2094 93.9604 49.4228 93.9693C49.6362 93.9783 49.8289 93.9511 50.001 93.8877C50.1751 93.8244 50.3242 93.7298 50.4485 93.6039C50.5728 93.4761 50.6712 93.3188 50.7435 93.1323C50.816 92.9438 50.8572 92.7297 50.8672 92.4901Z" fill="white"/>
<path d="M56.0224 93.75L56.0729 94.4191L53.5201 94.6115L53.1917 90.2535L54.0024 90.1924L54.2804 93.8813L56.0224 93.75Z" fill="white"/>
<path d="M61.2184 91.3243C61.2789 91.6389 61.2821 91.9379 61.2278 92.2212C61.1736 92.5046 61.0698 92.7595 60.9164 92.986C60.763 93.2125 60.5628 93.4039 60.3158 93.5601C60.0689 93.7164 59.7822 93.8259 59.4557 93.8887L57.8204 94.2033L56.9947 89.9117L58.63 89.597C58.9565 89.5342 59.2636 89.5306 59.5513 89.586C59.8386 89.6395 60.0955 89.7429 60.3219 89.8963C60.5481 90.0478 60.7389 90.245 60.8944 90.488C61.0499 90.7309 61.1579 91.0097 61.2184 91.3243ZM60.3992 91.4819C60.3539 91.2465 60.2817 91.0418 60.1826 90.868C60.0851 90.6919 59.9647 90.5509 59.8212 90.4451C59.6793 90.337 59.5176 90.2645 59.3361 90.2276C59.1566 90.1903 58.962 90.1918 58.7522 90.2322L57.9182 90.3926L58.4995 93.414L59.3335 93.2536C59.5433 93.2132 59.7246 93.1424 59.8774 93.0412C60.0323 92.9396 60.1557 92.8133 60.2477 92.6622C60.3413 92.5088 60.4009 92.3331 60.4265 92.1354C60.4536 91.9352 60.4445 91.7174 60.3992 91.4819Z" fill="white"/>
<path d="M76.3896 41.058V39.3828H75.7656V39.1572H77.268V39.3828H76.6392V41.0532H76.3896V41.058Z" fill="#725020"/>
<path d="M77.5204 41.0581V39.1621H77.8996L78.3484 40.5037C78.3916 40.6309 78.418 40.7221 78.4396 40.7845C78.4612 40.7149 78.4948 40.6117 78.5404 40.4797L78.9748 39.1621H79.3252V41.0581H79.0828V39.4717L78.5308 41.0581H78.3052L77.758 39.4429V41.0581H77.5156H77.5204Z" fill="#725020"/>
<path d="M51.2457 43.6789C48.7785 43.6789 46.7793 41.6797 46.7793 39.2125C46.7793 36.7453 48.7785 34.7461 51.2457 34.7461C53.7129 34.7461 55.7121 36.7453 55.7121 39.2125C55.7073 41.6773 53.7105 43.6741 51.2457 43.6789ZM51.2457 36.0709C49.5009 36.0709 48.0873 37.4845 48.0873 39.2293C48.0873 40.9741 49.5009 42.3877 51.2457 42.3877C52.9905 42.3877 54.4041 40.9741 54.4041 39.2293C54.4041 37.4845 52.9905 36.0709 51.2457 36.0709Z" fill="#725020"/>
<path d="M42.2184 60.7397C42.2184 62.1581 42.552 63.2693 43.2216 64.0733C43.8888 64.8797 44.7792 65.2805 45.8904 65.2805C47.0016 65.2805 48.0336 64.9013 48.984 64.1453L49.2264 64.3133L48.696 65.6909C47.6688 66.4157 46.3416 66.7781 44.7192 66.7781C42.84 66.7781 41.3688 66.2261 40.308 65.1221C39.2472 64.0181 38.7168 62.4845 38.7168 60.5189C38.7168 58.7789 39.24 57.3629 40.284 56.2661C41.328 55.1717 42.7344 54.6221 44.5032 54.6221C46.1592 54.6221 47.4288 55.0805 48.312 55.9997C49.1952 56.9189 49.6368 58.2389 49.6368 59.9621C49.6368 60.3005 49.6296 60.5573 49.6128 60.7349H42.2208L42.2184 60.7397ZM42.2184 59.5565H46.3008C46.3008 59.4605 46.308 59.3477 46.3248 59.2181V58.9757C46.3248 56.7701 45.696 55.6661 44.4408 55.6661C42.9576 55.6661 42.2184 56.8901 42.2184 59.3381V59.5565Z" fill="#725020"/>
<path d="M57.1873 64.9691C56.4793 66.1763 55.3921 66.7811 53.9257 66.7811C52.9105 66.7811 52.1137 66.4835 51.5329 65.8883C50.9521 65.2931 50.6641 64.4723 50.6641 63.4235C50.6641 61.9571 51.5089 60.9347 53.2009 60.3539C53.9089 60.1283 54.6217 59.9027 55.3393 59.6771C56.0569 59.4515 56.6161 59.2019 57.0193 58.9283C57.0361 58.8323 57.0433 58.6955 57.0433 58.5179C57.0433 57.7931 56.8345 57.2123 56.4145 56.7779C55.9945 56.3435 55.4401 56.1251 54.7465 56.1251C53.6833 56.1251 52.7809 56.7443 52.0393 57.9851C51.8305 57.3419 51.6529 56.8259 51.5089 56.4395C52.8937 55.2155 54.3265 54.6035 55.8097 54.6035C58.8049 54.6035 60.3025 55.8923 60.3025 58.4699V58.5899L60.2305 63.2531C60.2305 64.1723 60.3193 64.7747 60.4969 65.0651C60.7057 65.4035 61.1497 65.5715 61.8265 65.5715H61.8985V66.1763C61.0441 66.5147 60.1993 66.6827 59.3617 66.6827C58.1857 66.6827 57.4609 66.1115 57.1873 64.9667V64.9691ZM57.0433 60.1379C55.9489 60.3635 55.1545 60.7067 54.6649 61.1651C54.1753 61.6235 53.9281 62.2715 53.9281 63.1091C53.9281 64.4939 54.4201 65.1875 55.4041 65.1875C56.4985 65.1875 57.0457 64.4387 57.0457 62.9411V60.1379H57.0433Z" fill="#725020"/>
<path d="M38.3522 49.5611C37.373 48.8075 35.861 48.4307 33.8162 48.4307C33.1994 48.4307 32.405 48.4475 31.4354 48.4835C30.4658 48.5195 29.7962 48.5363 29.4266 48.5363C28.8266 48.5363 28.2098 48.5003 27.5762 48.4307C27.7874 50.8283 27.893 53.8427 27.893 57.4739C27.893 61.1051 27.7874 64.1987 27.5762 66.4907H31.9658C31.7714 64.2683 31.6754 62.9555 31.6754 62.5499V58.6619H32.549C37.397 58.6619 39.821 56.8283 39.821 53.1635C39.821 51.5147 39.3314 50.3147 38.3546 49.5587L38.3522 49.5611ZM34.709 56.3099C34.0874 56.9267 33.0746 57.2363 31.6754 57.2363V52.8731C31.6754 52.0619 31.7354 51.0827 31.8602 49.9379C32.2442 49.9019 32.5178 49.8851 32.6738 49.8851C34.6514 49.8851 35.6426 51.0227 35.6426 53.2955C35.6426 54.6875 35.3306 55.6931 34.709 56.3099Z" fill="#725020"/>
<path d="M70.1518 54.6269C68.2678 54.6269 67.027 55.7549 66.4318 58.0085H66.3118C66.3118 57.3485 66.3526 56.3165 66.4318 54.9149H63.0742C63.187 56.1701 63.2422 58.0973 63.2422 60.6893C63.2422 62.9597 63.1846 64.8941 63.0742 66.4877H66.6502C66.5062 64.8605 66.4318 63.1133 66.4318 61.2437C66.4318 58.9565 67.1878 57.8117 68.7022 57.8117C69.1054 57.8117 69.6286 57.9317 70.2718 58.1741V54.6221H70.1518V54.6269Z" fill="#725020"/>
<path d="M74.9105 48.3945H71.3105C71.4401 50.9673 71.5049 54.0009 71.5049 57.4905C71.5049 60.9801 71.4401 63.8049 71.3105 66.4905H74.9105C74.7809 63.9177 74.7161 60.8841 74.7161 57.3945C74.7161 53.9049 74.7809 51.0801 74.9105 48.3945Z" fill="#725020"/>
<path d="M68.837 36.4354L62.2082 31.1962L51.245 22.5322L23.1914 44.7058H31.8122L51.245 29.4322L70.6778 44.7058H79.2962L68.837 36.4354Z" fill="#725020"/>
</g>
<defs>
<filter id="filter0_d_6688_46389" x="-0.000452638" y="-0.000276446" width="104.538" height="104.536" filterUnits="userSpaceOnUse" color-interpolation-filters="sRGB">
<feFlood flood-opacity="0" result="BackgroundImageFix"/>
<feColorMatrix in="SourceAlpha" type="matrix" values="0 0 0 0 0 0 0 0 0 0 0 0 0 0 0 0 0 0 127 0" result="hardAlpha"/>
<feOffset dx="1.00666" dy="1.50879"/>
<feGaussianBlur stdDeviation="2.01332"/>
<feColorMatrix type="matrix" values="0 0 0 0 0 0 0 0 0 0 0 0 0 0 0 0 0 0 0.25 0"/>
<feBlend mode="normal" in2="BackgroundImageFix" result="effect1_dropShadow_6688_46389"/>
<feBlend mode="normal" in="SourceGraphic" in2="effect1_dropShadow_6688_46389" result="shape"/>
</filter>
<filter id="filter1_d_6688_46389" x="12.5572" y="12.5372" width="79.3455" height="79.3455" filterUnits="userSpaceOnUse" color-interpolation-filters="sRGB">
<feFlood flood-opacity="0" result="BackgroundImageFix"/>
<feColorMatrix in="SourceAlpha" type="matrix" values="0 0 0 0 0 0 0 0 0 0 0 0 0 0 0 0 0 0 127 0" result="hardAlpha"/>
<feOffset dx="0.968221" dy="1.45113"/>
<feGaussianBlur stdDeviation="1.93404"/>
<feColorMatrix type="matrix" values="0 0 0 0 0 0 0 0 0 0 0 0 0 0 0 0 0 0 0.2 0"/>
<feBlend mode="normal" in2="BackgroundImageFix" result="effect1_dropShadow_6688_46389"/>
<feBlend mode="normal" in="SourceGraphic" in2="effect1_dropShadow_6688_46389" result="shape"/>
</filter>
</defs>
</svg>
