<svg width="105" height="105" viewBox="0 0 105 105" fill="none" xmlns="http://www.w3.org/2000/svg">
<g style="mix-blend-mode:luminosity" opacity="0.5">
<g filter="url(#filter0_d_6688_46430)">
<path d="M51.2656 98.7627C77.7753 98.7627 99.2656 77.2724 99.2656 50.7627C99.2656 24.253 77.7753 2.7627 51.2656 2.7627C24.756 2.7627 3.26562 24.253 3.26562 50.7627C3.26562 77.2724 24.756 98.7627 51.2656 98.7627Z" fill="#C4D3DE"/>
<path d="M51.2656 98.7627C77.7753 98.7627 99.2656 77.2724 99.2656 50.7627C99.2656 24.253 77.7753 2.7627 51.2656 2.7627C24.756 2.7627 3.26562 24.253 3.26562 50.7627C3.26562 77.2724 24.756 98.7627 51.2656 98.7627Z" stroke="#1D7796" stroke-width="0.483475" stroke-miterlimit="10"/>
</g>
<g filter="url(#filter1_d_6688_46430)">
<path d="M51.2663 86.3256C70.9073 86.3256 86.8295 70.4034 86.8295 50.7624C86.8295 31.1214 70.9073 15.1992 51.2663 15.1992C31.6253 15.1992 15.7031 31.1214 15.7031 50.7624C15.7031 70.4034 31.6253 86.3256 51.2663 86.3256Z" fill="#E7EDF2"/>
<path d="M51.2663 86.3256C70.9073 86.3256 86.8295 70.4034 86.8295 50.7624C86.8295 31.1214 70.9073 15.1992 51.2663 15.1992C31.6253 15.1992 15.7031 31.1214 15.7031 50.7624C15.7031 70.4034 31.6253 86.3256 51.2663 86.3256Z" stroke="#1D7796" stroke-width="0.483475" stroke-miterlimit="10"/>
</g>
<path d="M24.2907 18.9958C24.4043 18.899 24.4916 18.8008 24.5526 18.7012C24.6122 18.6001 24.6474 18.4999 24.6582 18.4006C24.6693 18.2985 24.6566 18.198 24.6201 18.0992C24.5824 17.9989 24.5236 17.9018 24.4438 17.8082C24.3679 17.7191 24.2854 17.6502 24.1963 17.6016C24.1072 17.553 24.0134 17.5268 23.915 17.5232C23.8165 17.5196 23.7139 17.5408 23.6072 17.5866C23.4992 17.6309 23.3876 17.7021 23.2724 17.8002L22.8094 18.1945L23.8277 19.3901L24.2907 18.9958ZM22.8643 17.321C23.087 17.1314 23.302 16.9933 23.5093 16.9069C23.7165 16.8205 23.9131 16.779 24.0988 16.7824C24.2846 16.7858 24.4584 16.8312 24.6202 16.9186C24.7836 17.0047 24.9314 17.1253 25.0635 17.2804C25.2008 17.4416 25.3002 17.6127 25.3615 17.7937C25.4216 17.9731 25.439 18.1569 25.4139 18.3452C25.3888 18.5335 25.3178 18.7239 25.2007 18.9163C25.0853 19.1074 24.9193 19.2951 24.7027 19.4796L24.2397 19.8739L25.2383 21.0465L24.6186 21.5743L21.7816 18.2431L22.8643 17.321Z" fill="#005F89"/>
<path d="M26.5917 15.2649L27.2751 16.2675L28.5403 15.4051L28.8931 15.9227L27.6279 16.7851L28.325 17.8077L29.9302 16.7135L30.2966 17.2511L28.0164 18.8054L25.5519 15.19L27.8322 13.6357L28.1969 14.1707L26.5917 15.2649Z" fill="#005F89"/>
<path d="M32.7313 14.007L31.5818 12.9675C31.5285 12.9226 31.4687 12.8675 31.4023 12.8021C31.336 12.7368 31.2663 12.6652 31.1934 12.5873C31.2181 12.6905 31.2392 12.7889 31.2565 12.8824C31.2729 12.9741 31.285 13.0555 31.2928 13.1266L31.4998 14.6558L32.7313 14.007ZM34.773 14.7989L34.2162 15.0922C34.1537 15.1251 34.0948 15.1367 34.0396 15.1271C33.9834 15.1156 33.9333 15.0919 33.8892 15.0558L33.184 14.4184L31.5804 15.2632L31.7073 16.2052C31.7146 16.2538 31.7067 16.3059 31.6835 16.3614C31.6604 16.4169 31.6184 16.4607 31.5577 16.4927L30.9955 16.7888L30.4795 12.1152L31.2131 11.7287L34.773 14.7989Z" fill="#005F89"/>
<path d="M36.1919 11.7723C36.335 11.7174 36.4525 11.6519 36.5443 11.5756C36.6379 11.4987 36.7067 11.4162 36.7507 11.328C36.7959 11.2372 36.8188 11.142 36.8195 11.0424C36.8202 10.9428 36.8007 10.8411 36.761 10.7375C36.6816 10.5303 36.5518 10.3975 36.3717 10.3391C36.1935 10.2799 35.964 10.3041 35.6834 10.4117L35.1974 10.598L35.7172 11.9542L36.1919 11.7723ZM38.968 13.1646L38.2814 13.4278C38.1514 13.4776 38.0377 13.4628 37.9403 13.3835L36.58 12.4045C36.5292 12.3678 36.4801 12.3467 36.4326 12.3411C36.3869 12.3348 36.3265 12.3461 36.2511 12.375L35.9262 12.4995L36.538 14.0959L35.778 14.3872L34.2121 10.3016L35.4581 9.82398C35.735 9.71786 35.9836 9.65609 36.2037 9.63868C36.425 9.61866 36.6187 9.63627 36.7846 9.69151C36.9524 9.74601 37.0942 9.83424 37.2101 9.95618C37.3252 10.0762 37.416 10.2229 37.4824 10.3962C37.5351 10.5337 37.5642 10.6716 37.5697 10.81C37.5771 10.9476 37.5613 11.0811 37.5223 11.2105C37.4852 11.3392 37.4246 11.4629 37.3405 11.5816C37.2582 11.6995 37.1538 11.8076 37.0272 11.9058C37.087 11.9153 37.1453 11.9318 37.2019 11.9555C37.2577 11.9773 37.3127 12.0081 37.3669 12.0478L38.968 13.1646Z" fill="#005F89"/>
<path d="M42.345 11.5591L42.5177 12.2083L40.0409 12.8673L38.9159 8.63896L39.7025 8.42966L40.6548 12.0089L42.345 11.5591Z" fill="#005F89"/>
<path d="M48.5548 10.2942C48.5989 10.2897 48.6398 10.3027 48.6774 10.3333L49.0321 10.6466C48.8781 10.8835 48.6776 11.0735 48.4307 11.2166C48.1859 11.3594 47.8828 11.4494 47.5216 11.4866C47.1986 11.5199 46.9019 11.4947 46.6317 11.411C46.3635 11.3271 46.1279 11.1962 45.9251 11.0183C45.7222 10.8405 45.5576 10.6202 45.4311 10.3574C45.3067 10.0944 45.2279 9.80136 45.1946 9.47829C45.1609 9.1512 45.1823 8.84683 45.2587 8.56519C45.335 8.28153 45.4573 8.03167 45.6256 7.81559C45.796 7.5993 46.0071 7.42344 46.2588 7.28801C46.5103 7.15057 46.7956 7.06542 47.1146 7.03256C47.4317 6.99991 47.718 7.02315 47.9736 7.10228C48.2311 7.18121 48.4549 7.29607 48.6448 7.44686L48.4127 7.85101C48.3991 7.87674 48.3802 7.89998 48.356 7.92073C48.3337 7.94127 48.3006 7.95381 48.2564 7.95836C48.2263 7.96146 48.1944 7.95663 48.1606 7.94388C48.1267 7.92913 48.0894 7.91168 48.0488 7.89152C48.0079 7.86936 47.9609 7.84582 47.9076 7.82088C47.8544 7.79595 47.7934 7.77485 47.7247 7.75759C47.6558 7.73833 47.5764 7.72521 47.4864 7.71825C47.3983 7.70908 47.297 7.71038 47.1826 7.72216C46.988 7.74221 46.813 7.79572 46.6577 7.88269C46.5042 7.96745 46.3761 8.08204 46.2733 8.22647C46.1704 8.36889 46.0966 8.53872 46.052 8.73597C46.0072 8.93121 45.9973 9.15023 46.0223 9.39304C46.0475 9.63786 46.1041 9.85207 46.1919 10.0357C46.2818 10.2191 46.3927 10.3699 46.5245 10.4881C46.6563 10.6064 46.8061 10.6923 46.9739 10.746C47.1414 10.7977 47.3175 10.8141 47.5021 10.7951C47.6125 10.7837 47.7112 10.7675 47.7983 10.7463C47.8873 10.725 47.9676 10.6974 48.0392 10.6637C48.1128 10.6298 48.1806 10.5893 48.2427 10.5424C48.3066 10.4932 48.3685 10.4351 48.4285 10.3681C48.4467 10.348 48.4664 10.3317 48.4874 10.3194C48.5082 10.3051 48.5307 10.2967 48.5548 10.2942Z" fill="#005F89"/>
<path d="M51.1675 7.53121L51.1478 8.74445L52.6787 8.7693L52.6686 9.39558L51.1377 9.37073L51.1176 10.6082L53.06 10.6397L53.0494 11.2902L50.2901 11.2454L50.3611 6.87048L53.1204 6.91528L53.1099 7.56274L51.1675 7.53121Z" fill="#005F89"/>
<path d="M55.9887 9.23449C56.141 9.25211 56.2755 9.24838 56.3921 9.22329C56.5107 9.19843 56.6099 9.15711 56.6897 9.09933C56.7717 9.03977 56.8361 8.96599 56.8829 8.87799C56.9296 8.78998 56.9593 8.69087 56.9721 8.58065C56.9976 8.36022 56.944 8.18243 56.8114 8.04727C56.6808 7.91235 56.4662 7.82761 56.1677 7.79306L55.6507 7.73324L55.4837 9.17606L55.9887 9.23449ZM57.8051 11.7536L57.0747 11.6691C56.9364 11.6531 56.8425 11.5874 56.7929 11.472L56.0401 9.97456C56.0121 9.91851 55.9783 9.87704 55.9388 9.85012C55.9013 9.82344 55.8424 9.80547 55.7623 9.79619L55.4166 9.7562L55.2201 11.4545L54.4115 11.361L54.9144 7.01447L56.24 7.16784C56.5346 7.20192 56.7835 7.2622 56.9867 7.34867C57.1922 7.43336 57.3556 7.53858 57.4772 7.66433C57.6007 7.79032 57.6856 7.93417 57.7318 8.09589C57.7783 8.25561 57.7909 8.42764 57.7696 8.612C57.7527 8.75829 57.7146 8.89401 57.6555 9.01916C57.5983 9.14455 57.5225 9.25559 57.4281 9.35229C57.3356 9.44923 57.2246 9.53082 57.0951 9.59706C56.9676 9.66354 56.8251 9.71101 56.6674 9.73948C56.7161 9.77557 56.76 9.8172 56.7992 9.86438C56.8386 9.90956 56.8732 9.96229 56.9027 10.0226L57.8051 11.7536Z" fill="#005F89"/>
<path d="M62.5863 9.01989L61.2999 8.72693L60.4768 12.3411L59.6831 12.1604L60.5063 8.54618L59.2199 8.25321L59.3684 7.60118L62.7348 8.36786L62.5863 9.01989Z" fill="#005F89"/>
<path d="M63.7194 13.2641L62.9413 13.0148L64.2767 8.84803L65.0547 9.09738L63.7194 13.2641Z" fill="#005F89"/>
<path d="M67.4527 10.6678L66.9563 11.8639L68.4711 12.4926L68.2217 13.0935L66.7069 12.4648L66.0237 14.1109L65.2691 13.7978L66.9464 9.7565L69.4952 10.8144L69.247 11.4124L67.4527 10.6678Z" fill="#005F89"/>
<path d="M69.7311 15.8356L69.0052 15.4606L71.0134 11.5732L71.7393 11.9481L69.7311 15.8356Z" fill="#005F89"/>
<path d="M73.8501 13.8951L73.2051 14.9229L74.502 15.7367L74.1691 16.2673L72.8722 15.4534L72.2143 16.5017L73.8598 17.5343L73.514 18.0854L71.1765 16.6185L73.5023 12.9123L75.8398 14.3792L75.4956 14.9277L73.8501 13.8951Z" fill="#005F89"/>
<path d="M79.0187 19.5889C78.8175 19.8386 78.5911 20.0344 78.3395 20.1763C78.0879 20.3181 77.8259 20.4037 77.5536 20.4329C77.2813 20.4622 77.0056 20.4331 76.7265 20.3455C76.4473 20.2579 76.1782 20.1096 75.919 19.9008L74.6207 18.8547L77.366 15.4476L78.6642 16.4937C78.9234 16.7025 79.1249 16.9348 79.2686 17.1905C79.4136 17.4446 79.5007 17.7078 79.53 17.9801C79.5606 18.2508 79.5333 18.5242 79.4482 18.8002C79.3631 19.0762 79.22 19.3391 79.0187 19.5889ZM78.3684 19.0649C78.519 18.8779 78.6287 18.6904 78.6974 18.5022C78.7689 18.3138 78.7987 18.1305 78.7867 17.9525C78.7776 17.7741 78.7284 17.6037 78.6392 17.4411C78.5515 17.2798 78.4245 17.1321 78.258 16.9979L77.5959 16.4644L75.6632 18.8631L76.3253 19.3966C76.4918 19.5307 76.6631 19.6235 76.8394 19.6748C77.0172 19.7274 77.1936 19.74 77.3685 19.7126C77.5463 19.6848 77.7191 19.6168 77.8867 19.5083C78.0572 19.3996 78.2178 19.2518 78.3684 19.0649Z" fill="#005F89"/>
<path d="M35.2173 89.2825C35.355 89.3401 35.482 89.3736 35.5984 89.3829C35.7155 89.3904 35.8208 89.3765 35.9143 89.3412C36.0104 89.3049 36.0943 89.2481 36.1659 89.171C36.2383 89.0919 36.2983 88.9956 36.3458 88.8821C36.3909 88.7742 36.4151 88.6695 36.4182 88.568C36.4212 88.4665 36.4021 88.3711 36.3608 88.2816C36.3195 88.1922 36.2543 88.1102 36.1652 88.0358C36.0768 87.9595 35.9629 87.8921 35.8233 87.8337L35.2622 87.599L34.6562 89.0478L35.2173 89.2825ZM36.0662 87.2531C36.336 87.366 36.5564 87.4953 36.7272 87.6411C36.898 87.7869 37.0238 87.9434 37.1047 88.1106C37.1857 88.2779 37.2238 88.4534 37.219 88.6373C37.2161 88.822 37.1753 89.0083 37.0967 89.1962C37.015 89.3916 36.9073 89.5576 36.7736 89.6941C36.6408 89.8288 36.4847 89.9275 36.3054 89.9903C36.1261 90.053 35.9241 90.0757 35.6996 90.0583C35.477 90.0417 35.2344 89.9785 34.972 89.8688L34.4109 89.634L33.8166 91.0549L33.0656 90.7408L34.7542 86.7043L36.0662 87.2531Z" fill="#005F89"/>
<path d="M40.2724 92.6023L40.0797 93.2458L37.6245 92.5106L38.8796 88.319L39.6594 88.5525L38.5969 92.1006L40.2724 92.6023Z" fill="#005F89"/>
<path d="M44.3459 92.4479L44.0827 90.9205C44.0685 90.8523 44.0554 90.772 44.0435 90.6797C44.0316 90.5873 44.021 90.4879 44.0117 90.3817C43.9674 90.4782 43.9233 90.5686 43.8792 90.6528C43.8355 90.7351 43.7948 90.8066 43.7571 90.8674L42.9765 92.1985L44.3459 92.4479ZM45.464 94.3308L44.8448 94.218C44.7753 94.2054 44.7218 94.1782 44.6843 94.1365C44.6471 94.0929 44.6223 94.0432 44.6099 93.9877L44.4483 93.0509L42.6651 92.7262L42.1837 93.5459C42.1595 93.5886 42.1211 93.6247 42.0686 93.6541C42.0161 93.6835 41.9561 93.692 41.8886 93.6798L41.2635 93.5659L43.7412 89.5697L44.5569 89.7182L45.464 94.3308Z" fill="#005F89"/>
<path d="M49.9585 90.9667L48.6428 90.8685L48.3668 94.565L47.5551 94.5044L47.8311 90.8079L46.5155 90.7096L46.5653 90.0428L50.0083 90.2998L49.9585 90.9667Z" fill="#005F89"/>
<path d="M52.1729 94.6499L51.356 94.6632L51.285 90.2883L52.1019 90.275L52.1729 94.6499Z" fill="#005F89"/>
<path d="M57.4327 89.8471L57.9067 94.1968L57.4916 94.2421C57.4275 94.2491 57.3722 94.2449 57.3259 94.2297C57.2814 94.2122 57.2363 94.1806 57.1908 94.1348L54.6036 91.4825C54.6301 91.6136 54.6494 91.7353 54.6616 91.8476L54.9528 94.5188L54.2399 94.5965L53.7658 90.2467L54.1899 90.2005C54.224 90.1968 54.2533 90.1956 54.2778 90.197C54.3041 90.1962 54.3268 90.1998 54.346 90.2079C54.3669 90.2137 54.3874 90.2246 54.4074 90.2407C54.4272 90.2548 54.4496 90.2747 54.4748 90.3003L57.0723 92.9637C57.0586 92.8942 57.046 92.8255 57.0346 92.7578C57.0232 92.69 57.0143 92.6271 57.0079 92.5689L56.7198 89.9248L57.4327 89.8471Z" fill="#005F89"/>
<path d="M61.6534 92.7446C61.8062 92.7069 61.936 92.6479 62.0429 92.5675C62.1518 92.4866 62.236 92.39 62.2956 92.2777C62.3552 92.1653 62.3903 92.0382 62.4011 91.8964C62.4138 91.7541 62.4001 91.6016 62.36 91.439L61.7327 88.8948L62.523 88.6999L63.1503 91.2442C63.2126 91.4969 63.2292 91.7411 63.2 91.9768C63.1724 92.2101 63.1015 92.4239 62.9873 92.6183C62.8746 92.8102 62.7205 92.977 62.5248 93.1187C62.3286 93.2585 62.0944 93.362 61.8222 93.4291C61.548 93.4967 61.2915 93.5142 61.0529 93.4816C60.8137 93.4471 60.5987 93.3713 60.4078 93.2542C60.2183 93.1347 60.0562 92.9784 59.9213 92.7852C59.7878 92.5895 59.69 92.3654 59.6277 92.1127L59.0004 89.5684L59.7907 89.3736L60.4173 91.9149C60.4574 92.0775 60.5151 92.2191 60.5906 92.3397C60.668 92.4598 60.7594 92.5567 60.8648 92.6304C60.9718 92.7017 61.0912 92.7481 61.2233 92.7696C61.3572 92.7906 61.5006 92.7822 61.6534 92.7446Z" fill="#005F89"/>
<path d="M68.428 86.4513L70.0855 90.5007L69.4218 90.7723L68.3512 88.1567C68.3084 88.0522 68.2678 87.9369 68.2293 87.811L67.9466 90.6111C67.9338 90.7449 67.8677 90.8363 67.7482 90.8852L67.6418 90.9287C67.5223 90.9776 67.4111 90.9589 67.3081 90.8724L65.1258 89.0715C65.1566 89.1308 65.1861 89.1896 65.2143 89.2478C65.2425 89.306 65.2669 89.3603 65.2875 89.4107L66.3581 92.0263L65.6944 92.298L64.037 88.2486L64.6054 88.0159C64.639 88.0021 64.6684 87.9912 64.6934 87.9832C64.7184 87.9751 64.7418 87.971 64.7635 87.9708C64.7871 87.9699 64.8098 87.9747 64.8316 87.9854C64.8553 87.9954 64.8804 88.0113 64.9068 88.0331L67.0398 89.7856C67.096 89.8323 67.1501 89.8821 67.2022 89.9349C67.2562 89.9869 67.3101 90.0411 67.3637 90.0976C67.3616 90.0179 67.3615 89.9405 67.3635 89.8656C67.3648 89.7888 67.3691 89.714 67.3763 89.6413L67.654 86.9087C67.6574 86.8746 67.6641 86.8457 67.6741 86.822C67.684 86.7983 67.6968 86.7789 67.7124 86.7638C67.7299 86.7479 67.7503 86.7341 67.7739 86.7223C67.7974 86.7105 67.8259 86.6977 67.8595 86.684L68.428 86.4513Z" fill="#005F89"/>
<path d="M76.3955 41.0619V39.3867H75.7715V39.1611H77.2739V39.3867H76.6451V41.0571H76.3955V41.0619Z" fill="#013649"/>
<path d="M77.5263 41.062V39.166H77.9055L78.3543 40.5076C78.3975 40.6348 78.4239 40.726 78.4455 40.7884C78.4671 40.7188 78.5007 40.6156 78.5463 40.4836L78.9807 39.166H79.3311V41.062H79.0887V39.4756L78.5367 41.062H78.3111L77.7639 39.4468V41.062H77.5215H77.5263Z" fill="#013649"/>
<path d="M51.2476 43.6828C48.7804 43.6828 46.7812 41.6836 46.7812 39.2164C46.7812 36.7492 48.7804 34.75 51.2476 34.75C53.7148 34.75 55.7141 36.7492 55.7141 39.2164C55.7093 41.6812 53.7124 43.678 51.2476 43.6828ZM51.2476 36.0748C49.5028 36.0748 48.0893 37.4884 48.0893 39.2332C48.0893 40.978 49.5028 42.3916 51.2476 42.3916C52.9924 42.3916 54.4061 40.978 54.4061 39.2332C54.4061 37.4884 52.9924 36.0748 51.2476 36.0748Z" fill="#013649"/>
<path d="M42.2243 60.7446C42.2243 62.163 42.5579 63.2742 43.2275 64.0782C43.8947 64.8846 44.7851 65.2854 45.8963 65.2854C47.0075 65.2854 48.0395 64.9062 48.9899 64.1502L49.2323 64.3182L48.7019 65.6958C47.6747 66.4206 46.3475 66.783 44.7251 66.783C42.8459 66.783 41.3747 66.231 40.3139 65.127C39.2531 64.023 38.7227 62.4894 38.7227 60.5238C38.7227 58.7838 39.2459 57.3678 40.2899 56.271C41.3339 55.1766 42.7403 54.627 44.5091 54.627C46.1651 54.627 47.4347 55.0854 48.3179 56.0046C49.2011 56.9238 49.6427 58.2438 49.6427 59.967C49.6427 60.3054 49.6355 60.5622 49.6187 60.7398H42.2267L42.2243 60.7446ZM42.2243 59.5614H46.3067C46.3067 59.4654 46.3139 59.3526 46.3307 59.223V58.9806C46.3307 56.775 45.7019 55.671 44.4467 55.671C42.9635 55.671 42.2243 56.895 42.2243 59.343V59.5614Z" fill="#013649"/>
<path d="M57.1931 64.973C56.4851 66.1802 55.3979 66.785 53.9315 66.785C52.9163 66.785 52.1195 66.4874 51.5387 65.8922C50.9579 65.297 50.6699 64.4762 50.6699 63.4274C50.6699 61.961 51.5147 60.9386 53.2067 60.3578C53.9147 60.1322 54.6275 59.9066 55.3451 59.681C56.0627 59.4554 56.6219 59.2058 57.0251 58.9322C57.0419 58.8362 57.0491 58.6994 57.0491 58.5218C57.0491 57.797 56.8403 57.2162 56.4203 56.7818C56.0003 56.3474 55.4459 56.129 54.7523 56.129C53.6891 56.129 52.7867 56.7482 52.0451 57.989C51.8363 57.3458 51.6587 56.8298 51.5147 56.4434C52.8995 55.2194 54.3323 54.6074 55.8155 54.6074C58.8107 54.6074 60.3083 55.8962 60.3083 58.4738V58.5938L60.2363 63.257C60.2363 64.1762 60.3251 64.7786 60.5027 65.069C60.7115 65.4074 61.1555 65.5754 61.8323 65.5754H61.9043V66.1802C61.0499 66.5186 60.2051 66.6866 59.3675 66.6866C58.1915 66.6866 57.4667 66.1154 57.1931 64.9706V64.973ZM57.0491 60.1418C55.9547 60.3674 55.1603 60.7106 54.6707 61.169C54.1811 61.6274 53.9339 62.2754 53.9339 63.113C53.9339 64.4978 54.4259 65.1914 55.4099 65.1914C56.5043 65.1914 57.0515 64.4426 57.0515 62.945V60.1418H57.0491Z" fill="#013649"/>
<path d="M38.358 49.565C37.3788 48.8114 35.8668 48.4346 33.822 48.4346C33.2052 48.4346 32.4108 48.4514 31.4412 48.4874C30.4716 48.5234 29.802 48.5402 29.4324 48.5402C28.8324 48.5402 28.2156 48.5042 27.582 48.4346C27.7932 50.8322 27.8988 53.8466 27.8988 57.4778C27.8988 61.109 27.7932 64.2026 27.582 66.4946H31.9716C31.7772 64.2722 31.6812 62.9594 31.6812 62.5538V58.6658H32.5548C37.4028 58.6658 39.8268 56.8322 39.8268 53.1674C39.8268 51.5186 39.3372 50.3186 38.3604 49.5626L38.358 49.565ZM34.7148 56.3138C34.0932 56.9306 33.0804 57.2402 31.6812 57.2402V52.877C31.6812 52.0658 31.7412 51.0866 31.866 49.9418C32.25 49.9058 32.5236 49.889 32.6796 49.889C34.6572 49.889 35.6484 51.0266 35.6484 53.2994C35.6484 54.6914 35.3364 55.697 34.7148 56.3138Z" fill="#013649"/>
<path d="M70.1577 54.6308C68.2737 54.6308 67.0329 55.7588 66.4377 58.0124H66.3177C66.3177 57.3524 66.3585 56.3204 66.4377 54.9188H63.0801C63.1929 56.174 63.2481 58.1012 63.2481 60.6932C63.2481 62.9636 63.1905 64.898 63.0801 66.4916H66.6561C66.5121 64.8644 66.4377 63.1172 66.4377 61.2476C66.4377 58.9604 67.1937 57.8156 68.7081 57.8156C69.1113 57.8156 69.6345 57.9356 70.2777 58.178V54.626H70.1577V54.6308Z" fill="#013649"/>
<path d="M74.9164 48.3984H71.3164C71.446 50.9712 71.5108 54.0048 71.5108 57.4944C71.5108 60.984 71.446 63.8088 71.3164 66.4944H74.9164C74.7868 63.9216 74.722 60.888 74.722 57.3984C74.722 53.9088 74.7868 51.084 74.9164 48.3984Z" fill="#013649"/>
<path d="M68.8429 36.4393L62.2141 31.2001L51.2485 22.5361L23.1973 44.7097H31.8157L51.2485 29.4361L70.6813 44.7097H79.3021L68.8429 36.4393Z" fill="#013649"/>
</g>
<defs>
<filter id="filter0_d_6688_46430" x="-8.33273e-05" y="-0.000295639" width="104.547" height="104.547" filterUnits="userSpaceOnUse" color-interpolation-filters="sRGB">
<feFlood flood-opacity="0" result="BackgroundImageFix"/>
<feColorMatrix in="SourceAlpha" type="matrix" values="0 0 0 0 0 0 0 0 0 0 0 0 0 0 0 0 0 0 127 0" result="hardAlpha"/>
<feOffset dx="1.00784" dy="1.51056"/>
<feGaussianBlur stdDeviation="2.01568"/>
<feColorMatrix type="matrix" values="0 0 0 0 0 0 0 0 0 0 0 0 0 0 0 0 0 0 0.25 0"/>
<feBlend mode="normal" in2="BackgroundImageFix" result="effect1_dropShadow_6688_46430"/>
<feBlend mode="normal" in="SourceGraphic" in2="effect1_dropShadow_6688_46430" result="shape"/>
</filter>
<filter id="filter1_d_6688_46430" x="12.5577" y="12.5373" width="79.3546" height="79.3556" filterUnits="userSpaceOnUse" color-interpolation-filters="sRGB">
<feFlood flood-opacity="0" result="BackgroundImageFix"/>
<feColorMatrix in="SourceAlpha" type="matrix" values="0 0 0 0 0 0 0 0 0 0 0 0 0 0 0 0 0 0 127 0" result="hardAlpha"/>
<feOffset dx="0.969355" dy="1.45283"/>
<feGaussianBlur stdDeviation="1.9363"/>
<feColorMatrix type="matrix" values="0 0 0 0 0 0 0 0 0 0 0 0 0 0 0 0 0 0 0.2 0"/>
<feBlend mode="normal" in2="BackgroundImageFix" result="effect1_dropShadow_6688_46430"/>
<feBlend mode="normal" in="SourceGraphic" in2="effect1_dropShadow_6688_46430" result="shape"/>
</filter>
</defs>
</svg>
