<svg width="105" height="105" viewBox="0 0 105 105" fill="none" xmlns="http://www.w3.org/2000/svg">
<g style="mix-blend-mode:luminosity" opacity="0.5">
<g filter="url(#filter0_d_6688_17495)">
<path d="M51.2656 98.7625C77.7753 98.7625 99.2656 77.2721 99.2656 50.7625C99.2656 24.2528 77.7753 2.76245 51.2656 2.76245C24.756 2.76245 3.26562 24.2528 3.26562 50.7625C3.26562 77.2721 24.756 98.7625 51.2656 98.7625Z" fill="#C4D3DE"/>
<path d="M51.2656 98.7625C77.7753 98.7625 99.2656 77.2721 99.2656 50.7625C99.2656 24.2528 77.7753 2.76245 51.2656 2.76245C24.756 2.76245 3.26562 24.2528 3.26562 50.7625C3.26562 77.2721 24.756 98.7625 51.2656 98.7625Z" stroke="#1D7796" stroke-width="0.483475" stroke-miterlimit="10"/>
</g>
<g filter="url(#filter1_d_6688_17495)">
<path d="M51.2654 86.3257C70.9064 86.3257 86.8286 70.4036 86.8286 50.7625C86.8286 31.1215 70.9064 15.1993 51.2654 15.1993C31.6243 15.1993 15.7021 31.1215 15.7021 50.7625C15.7021 70.4036 31.6243 86.3257 51.2654 86.3257Z" fill="#E7EDF2"/>
<path d="M51.2654 86.3257C70.9064 86.3257 86.8286 70.4036 86.8286 50.7625C86.8286 31.1215 70.9064 15.1993 51.2654 15.1993C31.6243 15.1993 15.7021 31.1215 15.7021 50.7625C15.7021 70.4036 31.6243 86.3257 51.2654 86.3257Z" stroke="#1D7796" stroke-width="0.483475" stroke-miterlimit="10"/>
</g>
<path d="M24.2907 18.9957C24.4043 18.8989 24.4916 18.8007 24.5526 18.7011C24.6122 18.6 24.6474 18.4998 24.6582 18.4005C24.6693 18.2983 24.6566 18.1979 24.6201 18.0991C24.5824 17.9987 24.5236 17.9017 24.4438 17.808C24.3679 17.719 24.2854 17.6501 24.1963 17.6015C24.1072 17.5528 24.0134 17.5267 23.915 17.5231C23.8165 17.5195 23.7139 17.5406 23.6072 17.5865C23.4992 17.6308 23.3876 17.702 23.2724 17.8001L22.8094 18.1944L23.8277 19.39L24.2907 18.9957ZM22.8643 17.3209C23.087 17.1312 23.302 16.9932 23.5093 16.9068C23.7165 16.8203 23.9131 16.7788 24.0988 16.7823C24.2846 16.7857 24.4584 16.8311 24.6202 16.9185C24.7836 17.0046 24.9314 17.1252 25.0635 17.2803C25.2008 17.4415 25.3002 17.6126 25.3615 17.7935C25.4216 17.9729 25.439 18.1568 25.4139 18.3451C25.3888 18.5334 25.3178 18.7238 25.2007 18.9162C25.0853 19.1073 24.9193 19.295 24.7027 19.4794L24.2397 19.8738L25.2383 21.0464L24.6186 21.5741L21.7816 18.243L22.8643 17.3209Z" fill="#005F89"/>
<path d="M26.5917 15.2645L27.2751 16.2672L28.5403 15.4048L28.8931 15.9223L27.6279 16.7847L28.325 17.8073L29.9302 16.7132L30.2966 17.2507L28.0164 18.8051L25.5519 15.1896L27.8322 13.6353L28.1969 14.1704L26.5917 15.2645Z" fill="#005F89"/>
<path d="M32.7313 14.007L31.5818 12.9675C31.5285 12.9226 31.4687 12.8675 31.4023 12.8021C31.336 12.7368 31.2663 12.6652 31.1934 12.5873C31.2181 12.6905 31.2392 12.7889 31.2565 12.8824C31.2729 12.9741 31.285 13.0555 31.2928 13.1266L31.4998 14.6558L32.7313 14.007ZM34.773 14.7989L34.2162 15.0922C34.1537 15.1251 34.0948 15.1367 34.0396 15.1271C33.9834 15.1156 33.9333 15.0919 33.8892 15.0558L33.184 14.4184L31.5804 15.2632L31.7073 16.2052C31.7146 16.2538 31.7067 16.3059 31.6835 16.3614C31.6604 16.4169 31.6184 16.4607 31.5577 16.4927L30.9955 16.7888L30.4795 12.1152L31.2131 11.7287L34.773 14.7989Z" fill="#005F89"/>
<path d="M36.1919 11.7717C36.335 11.7168 36.4525 11.6512 36.5443 11.575C36.6379 11.4981 36.7067 11.4155 36.7507 11.3274C36.7959 11.2366 36.8188 11.1414 36.8195 11.0418C36.8202 10.9421 36.8007 10.8405 36.761 10.7369C36.6816 10.5297 36.5518 10.3969 36.3717 10.3385C36.1935 10.2793 35.964 10.3035 35.6834 10.4111L35.1974 10.5973L35.7172 11.9536L36.1919 11.7717ZM38.968 13.164L38.2814 13.4272C38.1514 13.477 38.0377 13.4622 37.9403 13.3829L36.58 12.4039C36.5292 12.3672 36.4801 12.346 36.4326 12.3405C36.3869 12.3342 36.3265 12.3455 36.2511 12.3744L35.9262 12.4989L36.538 14.0953L35.778 14.3866L34.2121 10.3009L35.4581 9.82337C35.735 9.71725 35.9836 9.65548 36.2037 9.63807C36.425 9.61805 36.6187 9.63566 36.7846 9.69089C36.9524 9.7454 37.0942 9.83363 37.2101 9.95557C37.3252 10.0756 37.416 10.2223 37.4824 10.3956C37.5351 10.5331 37.5642 10.671 37.5697 10.8093C37.5771 10.9469 37.5613 11.0805 37.5223 11.2099C37.4852 11.3386 37.4246 11.4623 37.3405 11.581C37.2582 11.6989 37.1538 11.807 37.0272 11.9052C37.087 11.9146 37.1453 11.9312 37.2019 11.9549C37.2577 11.9767 37.3127 12.0075 37.3669 12.0472L38.968 13.164Z" fill="#005F89"/>
<path d="M42.345 11.559L42.5177 12.2082L40.0409 12.8672L38.9159 8.63883L39.7025 8.42953L40.6548 12.0087L42.345 11.559Z" fill="#005F89"/>
<path d="M48.5548 10.2945C48.5989 10.2899 48.6398 10.303 48.6774 10.3336L49.0321 10.6469C48.8781 10.8838 48.6776 11.0738 48.4307 11.2168C48.1859 11.3596 47.8828 11.4497 47.5216 11.4869C47.1986 11.5201 46.9019 11.4949 46.6317 11.4112C46.3635 11.3273 46.1279 11.1964 45.9251 11.0186C45.7222 10.8407 45.5576 10.6204 45.4311 10.3576C45.3067 10.0946 45.2279 9.80161 45.1946 9.47853C45.1609 9.15145 45.1823 8.84708 45.2587 8.56543C45.335 8.28178 45.4573 8.03191 45.6256 7.81583C45.796 7.59955 46.0071 7.42369 46.2588 7.28825C46.5103 7.15081 46.7956 7.06566 47.1146 7.0328C47.4317 7.00015 47.718 7.02339 47.9736 7.10253C48.2311 7.18145 48.4549 7.29631 48.6448 7.4471L48.4127 7.85125C48.3991 7.87698 48.3802 7.90022 48.356 7.92097C48.3337 7.94151 48.3006 7.95405 48.2564 7.9586C48.2263 7.9617 48.1944 7.95688 48.1606 7.94413C48.1267 7.92938 48.0894 7.91192 48.0488 7.89177C48.0079 7.86961 47.9609 7.84606 47.9076 7.82113C47.8544 7.79619 47.7934 7.7751 47.7247 7.75784C47.6558 7.73857 47.5764 7.72546 47.4864 7.7185C47.3983 7.70932 47.297 7.71063 47.1826 7.72241C46.988 7.74245 46.813 7.79596 46.6577 7.88293C46.5042 7.96769 46.3761 8.08229 46.2733 8.22671C46.1704 8.36913 46.0966 8.53897 46.052 8.73621C46.0072 8.93145 45.9973 9.15048 46.0223 9.39329C46.0475 9.6381 46.1041 9.85231 46.1919 10.0359C46.2818 10.2193 46.3927 10.3701 46.5245 10.4884C46.6563 10.6066 46.8061 10.6926 46.9739 10.7463C47.1414 10.798 47.3175 10.8143 47.5021 10.7953C47.6125 10.7839 47.7112 10.7677 47.7983 10.7466C47.8873 10.7252 47.9676 10.6977 48.0392 10.664C48.1128 10.63 48.1806 10.5896 48.2427 10.5426C48.3066 10.4934 48.3685 10.4354 48.4285 10.3683C48.4467 10.3482 48.4664 10.332 48.4874 10.3197C48.5082 10.3054 48.5307 10.297 48.5548 10.2945Z" fill="#005F89"/>
<path d="M51.1665 7.53048L51.1468 8.74371L52.6778 8.76856L52.6676 9.39485L51.1367 9.37L51.1166 10.6074L53.059 10.639L53.0484 11.2895L50.2891 11.2447L50.3602 6.86975L53.1194 6.91454L53.1089 7.56201L51.1665 7.53048Z" fill="#005F89"/>
<path d="M55.9877 9.23376C56.14 9.25138 56.2745 9.24765 56.3911 9.22256C56.5097 9.1977 56.6089 9.15638 56.6887 9.09859C56.7708 9.03904 56.8352 8.96526 56.8819 8.87725C56.9286 8.78925 56.9584 8.69014 56.9711 8.57992C56.9966 8.35949 56.9431 8.1817 56.8105 8.04654C56.6799 7.91161 56.4653 7.82688 56.1667 7.79233L55.6497 7.73251L55.4827 9.17533L55.9877 9.23376ZM57.8042 11.7529L57.0737 11.6684C56.9355 11.6524 56.8415 11.5867 56.7919 11.4713L56.0392 9.97382C56.0111 9.91778 55.9773 9.8763 55.9378 9.84939C55.9003 9.82271 55.8414 9.80473 55.7613 9.79546L55.4156 9.75546L55.2191 11.4538L54.4105 11.3602L54.9134 7.01373L56.239 7.16711C56.5336 7.20119 56.7825 7.26147 56.9857 7.34793C57.1912 7.43263 57.3547 7.53785 57.4762 7.6636C57.5997 7.78958 57.6846 7.93343 57.7309 8.09516C57.7774 8.25487 57.79 8.42691 57.7686 8.61127C57.7517 8.75756 57.7137 8.89328 57.6545 9.01843C57.5973 9.14382 57.5215 9.25486 57.4271 9.35156C57.3346 9.44849 57.2237 9.53008 57.0942 9.59633C56.9667 9.6628 56.8241 9.71028 56.6665 9.73875C56.7151 9.77483 56.759 9.81647 56.7982 9.86365C56.8377 9.90883 56.8722 9.96156 56.9018 10.0218L57.8042 11.7529Z" fill="#005F89"/>
<path d="M62.5863 9.02001L61.2999 8.72705L60.4768 12.3413L59.6831 12.1605L60.5063 8.5463L59.2199 8.25334L59.3684 7.6013L62.7348 8.36798L62.5863 9.02001Z" fill="#005F89"/>
<path d="M63.7203 13.2639L62.9423 13.0145L64.2777 8.84779L65.0557 9.09713L63.7203 13.2639Z" fill="#005F89"/>
<path d="M67.4527 10.6676L66.9563 11.8638L68.4711 12.4925L68.2217 13.0934L66.7069 12.4647L66.0237 14.1108L65.2691 13.7976L66.9464 9.75638L69.4952 10.8142L69.247 11.4123L67.4527 10.6676Z" fill="#005F89"/>
<path d="M69.7311 15.8357L69.0052 15.4607L71.0134 11.5733L71.7393 11.9482L69.7311 15.8357Z" fill="#005F89"/>
<path d="M73.8511 13.8951L73.2061 14.9229L74.503 15.7367L74.1701 16.2673L72.8732 15.4534L72.2153 16.5017L73.8608 17.5343L73.515 18.0854L71.1775 16.6185L73.5032 12.9123L75.8407 14.3792L75.4965 14.9277L73.8511 13.8951Z" fill="#005F89"/>
<path d="M79.0187 19.5884C78.8175 19.8381 78.5911 20.0339 78.3395 20.1758C78.0879 20.3176 77.8259 20.4032 77.5536 20.4325C77.2813 20.4618 77.0056 20.4326 76.7265 20.345C76.4473 20.2574 76.1782 20.1091 75.919 19.9003L74.6207 18.8542L77.366 15.4471L78.6642 16.4932C78.9234 16.702 79.1249 16.9343 79.2686 17.19C79.4136 17.4441 79.5007 17.7073 79.53 17.9796C79.5606 18.2504 79.5333 18.5237 79.4482 18.7997C79.3631 19.0757 79.22 19.3386 79.0187 19.5884ZM78.3684 19.0644C78.519 18.8774 78.6287 18.6899 78.6974 18.5017C78.7689 18.3133 78.7987 18.13 78.7867 17.952C78.7776 17.7736 78.7284 17.6032 78.6392 17.4406C78.5515 17.2793 78.4245 17.1316 78.258 16.9974L77.5959 16.4639L75.6632 18.8626L76.3253 19.3961C76.4918 19.5302 76.6631 19.623 76.8394 19.6743C77.0172 19.7269 77.1936 19.7395 77.3685 19.7121C77.5463 19.6844 77.7191 19.6163 77.8867 19.5079C78.0572 19.3991 78.2178 19.2513 78.3684 19.0644Z" fill="#005F89"/>
<path d="M35.2163 89.2823C35.354 89.3399 35.481 89.3734 35.5974 89.3827C35.7146 89.3901 35.8199 89.3762 35.9133 89.341C36.0094 89.3047 36.0933 89.2479 36.1649 89.1707C36.2374 89.0917 36.2973 88.9954 36.3448 88.8819C36.39 88.7739 36.4141 88.6692 36.4172 88.5677C36.4203 88.4663 36.4012 88.3708 36.3598 88.2814C36.3185 88.1919 36.2533 88.11 36.1642 88.0355C36.0759 87.9592 35.9619 87.8919 35.8223 87.8335L35.2612 87.5988L34.6552 89.0476L35.2163 89.2823ZM36.0652 87.2528C36.3351 87.3657 36.5554 87.4951 36.7262 87.6409C36.897 87.7866 37.0228 87.9432 37.1038 88.1104C37.1847 88.2776 37.2228 88.4532 37.218 88.6371C37.2151 88.8217 37.1744 89.008 37.0957 89.196C37.014 89.3914 36.9063 89.5574 36.7727 89.6939C36.6398 89.8286 36.4837 89.9273 36.3044 89.99C36.1251 90.0528 35.9232 90.0754 35.6986 90.0581C35.476 90.0415 35.2335 89.9783 34.9711 89.8685L34.41 89.6338L33.8156 91.0547L33.0647 90.7406L34.7532 86.704L36.0652 87.2528Z" fill="#005F89"/>
<path d="M40.2714 92.602L40.0787 93.2455L37.6235 92.5103L38.8786 88.3187L39.6584 88.5522L38.5959 92.1002L40.2714 92.602Z" fill="#005F89"/>
<path d="M44.3459 92.4479L44.0827 90.9205C44.0685 90.8523 44.0554 90.772 44.0435 90.6797C44.0316 90.5873 44.021 90.4879 44.0117 90.3817C43.9674 90.4782 43.9233 90.5686 43.8792 90.6528C43.8355 90.7351 43.7948 90.8066 43.7571 90.8674L42.9765 92.1985L44.3459 92.4479ZM45.464 94.3308L44.8448 94.218C44.7753 94.2054 44.7218 94.1782 44.6843 94.1365C44.6471 94.0929 44.6223 94.0432 44.6099 93.9877L44.4483 93.0509L42.6651 92.7262L42.1837 93.5459C42.1595 93.5886 42.1211 93.6247 42.0686 93.6541C42.0161 93.6835 41.9561 93.692 41.8886 93.6798L41.2635 93.5659L43.7412 89.5697L44.5569 89.7182L45.464 94.3308Z" fill="#005F89"/>
<path d="M49.9585 90.9667L48.6428 90.8685L48.3668 94.565L47.5551 94.5044L47.8311 90.8079L46.5155 90.7096L46.5653 90.0428L50.0083 90.2998L49.9585 90.9667Z" fill="#005F89"/>
<path d="M52.1729 94.6493L51.356 94.6626L51.285 90.2877L52.1019 90.2744L52.1729 94.6493Z" fill="#005F89"/>
<path d="M57.4327 89.8468L57.9067 94.1966L57.4916 94.2418C57.4275 94.2488 57.3722 94.2447 57.3259 94.2294C57.2814 94.212 57.2363 94.1804 57.1908 94.1346L54.6036 91.4823C54.6301 91.6133 54.6494 91.735 54.6616 91.8473L54.9528 94.5185L54.2399 94.5962L53.7658 90.2465L54.1899 90.2003C54.224 90.1965 54.2533 90.1954 54.2778 90.1968C54.3041 90.1959 54.3268 90.1995 54.346 90.2076C54.3669 90.2134 54.3874 90.2244 54.4074 90.2405C54.4272 90.2546 54.4496 90.2744 54.4748 90.3001L57.0723 92.9635C57.0586 92.8939 57.046 92.8253 57.0346 92.7575C57.0232 92.6898 57.0143 92.6268 57.0079 92.5687L56.7198 89.9245L57.4327 89.8468Z" fill="#005F89"/>
<path d="M61.6534 92.7447C61.8062 92.707 61.936 92.648 62.0429 92.5676C62.1518 92.4867 62.236 92.3901 62.2956 92.2778C62.3552 92.1655 62.3903 92.0384 62.4011 91.8965C62.4138 91.7542 62.4001 91.6017 62.36 91.4392L61.7327 88.8949L62.523 88.7001L63.1503 91.2443C63.2126 91.497 63.2292 91.7412 63.2 91.9769C63.1724 92.2102 63.1015 92.424 62.9873 92.6184C62.8746 92.8103 62.7205 92.9771 62.5248 93.1189C62.3286 93.2586 62.0944 93.3621 61.8222 93.4292C61.548 93.4968 61.2915 93.5143 61.0529 93.4818C60.8137 93.4472 60.5987 93.3714 60.4078 93.2544C60.2183 93.1348 60.0562 92.9785 59.9213 92.7853C59.7878 92.5896 59.69 92.3655 59.6277 92.1128L59.0004 89.5685L59.7907 89.3737L60.4173 91.915C60.4574 92.0776 60.5151 92.2192 60.5906 92.3398C60.668 92.4599 60.7594 92.5568 60.8648 92.6306C60.9718 92.7019 61.0912 92.7482 61.2233 92.7697C61.3572 92.7907 61.5006 92.7823 61.6534 92.7447Z" fill="#005F89"/>
<path d="M68.427 86.4509L70.0845 90.5003L69.4208 90.772L68.3502 88.1564C68.3074 88.0518 68.2668 87.9366 68.2283 87.8106L67.9456 90.6107C67.9328 90.7445 67.8667 90.8359 67.7472 90.8848L67.6408 90.9284C67.5213 90.9773 67.4101 90.9585 67.3071 90.872L65.1248 89.0711C65.1556 89.1305 65.1851 89.1892 65.2133 89.2474C65.2415 89.3057 65.2659 89.36 65.2866 89.4104L66.3572 92.026L65.6935 92.2976L64.036 88.2482L64.6045 88.0155C64.6381 88.0018 64.6674 87.9909 64.6924 87.9828C64.7175 87.9747 64.7408 87.9706 64.7626 87.9704C64.7862 87.9695 64.8089 87.9744 64.8307 87.9851C64.8543 87.995 64.8794 88.0109 64.9058 88.0328L67.0388 89.7852C67.095 89.8319 67.1492 89.8817 67.2013 89.9345C67.2553 89.9865 67.3091 90.0408 67.3627 90.0973C67.3606 90.0175 67.3605 89.9401 67.3626 89.8652C67.3638 89.7884 67.3681 89.7136 67.3754 89.6409L67.653 86.9083C67.6565 86.8742 67.6632 86.8453 67.6731 86.8216C67.683 86.7979 67.6958 86.7785 67.7114 86.7634C67.7289 86.7476 67.7494 86.7337 67.7729 86.7219C67.7964 86.7101 67.8249 86.6973 67.8585 86.6836L68.427 86.4509Z" fill="#005F89"/>
<path d="M76.3955 41.0616V39.3864H75.7715V39.1608H77.2739V39.3864H76.6451V41.0568H76.3955V41.0616Z" fill="#013649"/>
<path d="M77.5263 41.0615V39.1655H77.9055L78.3543 40.5071C78.3975 40.6343 78.4239 40.7255 78.4455 40.7879C78.4671 40.7183 78.5007 40.6151 78.5463 40.4831L78.9807 39.1655H79.3311V41.0615H79.0887V39.4751L78.5367 41.0615H78.3111L77.7639 39.4463V41.0615H77.5215H77.5263Z" fill="#013649"/>
<path d="M51.2486 43.6824C48.7814 43.6824 46.7822 41.6832 46.7822 39.216C46.7822 36.7488 48.7814 34.7496 51.2486 34.7496C53.7158 34.7496 55.715 36.7488 55.715 39.216C55.7102 41.6808 53.7134 43.6776 51.2486 43.6824ZM51.2486 36.0744C49.5038 36.0744 48.0902 37.488 48.0902 39.2328C48.0902 40.9776 49.5038 42.3912 51.2486 42.3912C52.9934 42.3912 54.407 40.9776 54.407 39.2328C54.407 37.488 52.9934 36.0744 51.2486 36.0744Z" fill="#013649"/>
<path d="M42.2243 60.7439C42.2243 62.1623 42.5579 63.2735 43.2275 64.0775C43.8947 64.8839 44.7851 65.2847 45.8963 65.2847C47.0075 65.2847 48.0395 64.9055 48.9899 64.1495L49.2323 64.3175L48.7019 65.6951C47.6747 66.4199 46.3475 66.7823 44.7251 66.7823C42.8459 66.7823 41.3747 66.2303 40.3139 65.1263C39.2531 64.0223 38.7227 62.4887 38.7227 60.5231C38.7227 58.7831 39.2459 57.3671 40.2899 56.2703C41.3339 55.1759 42.7403 54.6263 44.5091 54.6263C46.1651 54.6263 47.4347 55.0847 48.3179 56.0039C49.2011 56.9231 49.6427 58.2431 49.6427 59.9663C49.6427 60.3047 49.6355 60.5615 49.6187 60.7391H42.2267L42.2243 60.7439ZM42.2243 59.5607H46.3067C46.3067 59.4647 46.3139 59.3519 46.3307 59.2223V58.9799C46.3307 56.7743 45.7019 55.6703 44.4467 55.6703C42.9635 55.6703 42.2243 56.8943 42.2243 59.3423V59.5607Z" fill="#013649"/>
<path d="M57.1931 64.9729C56.4851 66.1801 55.3979 66.7849 53.9315 66.7849C52.9163 66.7849 52.1195 66.4873 51.5387 65.8921C50.9579 65.2969 50.6699 64.4761 50.6699 63.4273C50.6699 61.9609 51.5147 60.9385 53.2067 60.3577C53.9147 60.1321 54.6275 59.9065 55.3451 59.6809C56.0627 59.4553 56.6219 59.2057 57.0251 58.9321C57.0419 58.8361 57.0491 58.6993 57.0491 58.5217C57.0491 57.7969 56.8403 57.2161 56.4203 56.7817C56.0003 56.3473 55.4459 56.1289 54.7523 56.1289C53.6891 56.1289 52.7867 56.7481 52.0451 57.9889C51.8363 57.3457 51.6587 56.8297 51.5147 56.4433C52.8995 55.2193 54.3323 54.6073 55.8155 54.6073C58.8107 54.6073 60.3083 55.8961 60.3083 58.4737V58.5937L60.2363 63.2569C60.2363 64.1761 60.3251 64.7785 60.5027 65.0689C60.7115 65.4073 61.1555 65.5753 61.8323 65.5753H61.9043V66.1801C61.0499 66.5185 60.2051 66.6865 59.3675 66.6865C58.1915 66.6865 57.4667 66.1153 57.1931 64.9705V64.9729ZM57.0491 60.1417C55.9547 60.3673 55.1603 60.7105 54.6707 61.1689C54.1811 61.6273 53.9339 62.2753 53.9339 63.1129C53.9339 64.4977 54.4259 65.1913 55.4099 65.1913C56.5043 65.1913 57.0515 64.4425 57.0515 62.9449V60.1417H57.0491Z" fill="#013649"/>
<path d="M38.358 49.5648C37.3788 48.8112 35.8668 48.4344 33.822 48.4344C33.2052 48.4344 32.4108 48.4512 31.4412 48.4872C30.4716 48.5232 29.802 48.54 29.4324 48.54C28.8324 48.54 28.2156 48.504 27.582 48.4344C27.7932 50.832 27.8988 53.8464 27.8988 57.4776C27.8988 61.1088 27.7932 64.2024 27.582 66.4944H31.9716C31.7772 64.272 31.6812 62.9592 31.6812 62.5536V58.6656H32.5548C37.4028 58.6656 39.8268 56.832 39.8268 53.1672C39.8268 51.5184 39.3372 50.3184 38.3604 49.5624L38.358 49.5648ZM34.7148 56.3136C34.0932 56.9304 33.0804 57.24 31.6812 57.24V52.8768C31.6812 52.0656 31.7412 51.0864 31.866 49.9416C32.25 49.9056 32.5236 49.8888 32.6796 49.8888C34.6572 49.8888 35.6484 51.0264 35.6484 53.2992C35.6484 54.6912 35.3364 55.6968 34.7148 56.3136Z" fill="#013649"/>
<path d="M70.1577 54.6313C68.2737 54.6313 67.0329 55.7593 66.4377 58.0129H66.3177C66.3177 57.3529 66.3585 56.3209 66.4377 54.9193H63.0801C63.1929 56.1745 63.2481 58.1017 63.2481 60.6937C63.2481 62.9641 63.1905 64.8985 63.0801 66.4921H66.6561C66.5121 64.8649 66.4377 63.1177 66.4377 61.2481C66.4377 58.9609 67.1937 57.8161 68.7081 57.8161C69.1113 57.8161 69.6345 57.9361 70.2777 58.1785V54.6265H70.1577V54.6313Z" fill="#013649"/>
<path d="M74.9174 48.3984H71.3174C71.447 50.9712 71.5118 54.0048 71.5118 57.4944C71.5118 60.984 71.447 63.8088 71.3174 66.4944H74.9174C74.7878 63.9216 74.723 60.888 74.723 57.3984C74.723 53.9088 74.7878 51.084 74.9174 48.3984Z" fill="#013649"/>
<path d="M68.8429 36.4392L62.2141 31.2L51.2485 22.536L23.1973 44.7096H31.8157L51.2485 29.436L70.6813 44.7096H79.3021L68.8429 36.4392Z" fill="#013649"/>
</g>
<defs>
<filter id="filter0_d_6688_17495" x="-8.33273e-05" y="-5.14984e-05" width="104.547" height="104.546" filterUnits="userSpaceOnUse" color-interpolation-filters="sRGB">
<feFlood flood-opacity="0" result="BackgroundImageFix"/>
<feColorMatrix in="SourceAlpha" type="matrix" values="0 0 0 0 0 0 0 0 0 0 0 0 0 0 0 0 0 0 127 0" result="hardAlpha"/>
<feOffset dx="1.00784" dy="1.51056"/>
<feGaussianBlur stdDeviation="2.01568"/>
<feColorMatrix type="matrix" values="0 0 0 0 0 0 0 0 0 0 0 0 0 0 0 0 0 0 0.25 0"/>
<feBlend mode="normal" in2="BackgroundImageFix" result="effect1_dropShadow_6688_17495"/>
<feBlend mode="normal" in="SourceGraphic" in2="effect1_dropShadow_6688_17495" result="shape"/>
</filter>
<filter id="filter1_d_6688_17495" x="12.5567" y="12.5379" width="79.3556" height="79.3551" filterUnits="userSpaceOnUse" color-interpolation-filters="sRGB">
<feFlood flood-opacity="0" result="BackgroundImageFix"/>
<feColorMatrix in="SourceAlpha" type="matrix" values="0 0 0 0 0 0 0 0 0 0 0 0 0 0 0 0 0 0 127 0" result="hardAlpha"/>
<feOffset dx="0.969355" dy="1.45283"/>
<feGaussianBlur stdDeviation="1.9363"/>
<feColorMatrix type="matrix" values="0 0 0 0 0 0 0 0 0 0 0 0 0 0 0 0 0 0 0.2 0"/>
<feBlend mode="normal" in2="BackgroundImageFix" result="effect1_dropShadow_6688_17495"/>
<feBlend mode="normal" in="SourceGraphic" in2="effect1_dropShadow_6688_17495" result="shape"/>
</filter>
</defs>
</svg>
