<svg width="105" height="105" viewBox="0 0 105 105" fill="none" xmlns="http://www.w3.org/2000/svg">
<g style="mix-blend-mode:luminosity" opacity="0.5">
<g filter="url(#filter0_d_6688_17460)">
<path d="M51.2607 98.7593C77.7704 98.7593 99.2607 77.2689 99.2607 50.7593C99.2607 24.2496 77.7704 2.75928 51.2607 2.75928C24.7511 2.75928 3.26074 24.2496 3.26074 50.7593C3.26074 77.2689 24.7511 98.7593 51.2607 98.7593Z" fill="#BD8A34"/>
<path d="M51.2607 98.7593C77.7704 98.7593 99.2607 77.2689 99.2607 50.7593C99.2607 24.2496 77.7704 2.75928 51.2607 2.75928C24.7511 2.75928 3.26074 24.2496 3.26074 50.7593C3.26074 77.2689 24.7511 98.7593 51.2607 98.7593Z" stroke="#7F5313" stroke-width="0.482909" stroke-miterlimit="10"/>
</g>
<g filter="url(#filter1_d_6688_17460)">
<path d="M51.2614 86.3224C70.9025 86.3224 86.8246 70.4003 86.8246 50.7592C86.8246 31.1182 70.9025 15.196 51.2614 15.196C31.6204 15.196 15.6982 31.1182 15.6982 50.7592C15.6982 70.4003 31.6204 86.3224 51.2614 86.3224Z" fill="#E8A246"/>
<path d="M51.2614 86.3224C70.9025 86.3224 86.8246 70.4003 86.8246 50.7592C86.8246 31.1182 70.9025 15.196 51.2614 15.196C31.6204 15.196 15.6982 31.1182 15.6982 50.7592C15.6982 70.4003 31.6204 86.3224 51.2614 86.3224Z" stroke="#7F5313" stroke-width="0.482909" stroke-miterlimit="10"/>
</g>
<path d="M24.2838 18.9959C24.3973 18.8992 24.4845 18.8011 24.5454 18.7017C24.6049 18.6007 24.6401 18.5006 24.6509 18.4014C24.6619 18.2994 24.6492 18.199 24.6128 18.1003C24.5751 18.0001 24.5164 17.9032 24.4367 17.8096C24.361 17.7207 24.2786 17.6519 24.1895 17.6033C24.1005 17.5547 24.0069 17.5286 23.9085 17.5251C23.8102 17.5215 23.7077 17.5426 23.6011 17.5883C23.4933 17.6326 23.3818 17.7037 23.2667 17.8017L22.8042 18.1956L23.8213 19.3898L24.2838 18.9959ZM22.8591 17.3231C23.0816 17.1336 23.2963 16.9958 23.5033 16.9094C23.7103 16.8231 23.9066 16.7817 24.0921 16.7851C24.2777 16.7885 24.4513 16.8339 24.613 16.9211C24.7762 17.0071 24.9237 17.1276 25.0557 17.2825C25.1929 17.4436 25.2921 17.6144 25.3534 17.7952C25.4133 17.9743 25.4308 18.158 25.4057 18.3461C25.3806 18.5342 25.3097 18.7243 25.1928 18.9165C25.0775 19.1073 24.9116 19.2949 24.6953 19.4791L24.2328 19.873L25.2303 21.0442L24.6114 21.5713L21.7777 18.2441L22.8591 17.3231Z" fill="white"/>
<path d="M26.5861 15.2658L27.2687 16.2673L28.5324 15.4059L28.8848 15.9229L27.6211 16.7842L28.3173 17.8057L29.9207 16.7128L30.2867 17.2497L28.009 18.8022L25.5475 15.191L27.8251 13.6385L28.1894 14.1729L26.5861 15.2658Z" fill="white"/>
<path d="M32.7225 14.0071L31.5743 12.9688C31.5211 12.924 31.4613 12.8689 31.395 12.8036C31.3288 12.7383 31.2592 12.6668 31.1863 12.589C31.2111 12.6921 31.2321 12.7904 31.2494 12.8838C31.2657 12.9753 31.2778 13.0567 31.2856 13.1277L31.4924 14.6551L32.7225 14.0071ZM34.7618 14.798L34.2056 15.091C34.1432 15.1239 34.0844 15.1355 34.0292 15.1258C33.9731 15.1144 33.923 15.0907 33.879 15.0547L33.1747 14.418L31.5729 15.2618L31.6997 16.2027C31.707 16.2512 31.6991 16.3032 31.6759 16.3587C31.6528 16.4142 31.6109 16.4579 31.5503 16.4898L30.9887 16.7856L30.4733 12.1174L31.206 11.7315L34.7618 14.798Z" fill="white"/>
<path d="M36.184 11.7717C36.327 11.7169 36.4443 11.6515 36.536 11.5753C36.6295 11.4985 36.6983 11.416 36.7422 11.328C36.7873 11.2373 36.8102 11.1423 36.8109 11.0427C36.8116 10.9432 36.7921 10.8417 36.7525 10.7382C36.6731 10.5313 36.5435 10.3986 36.3636 10.3402C36.1856 10.2811 35.9564 10.3053 35.6761 10.4128L35.1907 10.5988L35.7099 11.9535L36.184 11.7717ZM38.9569 13.1625L38.2711 13.4253C38.1412 13.4751 38.0277 13.4603 37.9304 13.3811L36.5717 12.4032C36.521 12.3666 36.4719 12.3455 36.4244 12.3399C36.3789 12.3336 36.3185 12.3449 36.2432 12.3738L35.9186 12.4982L36.5298 14.0927L35.7706 14.3837L34.2065 10.3027L35.4511 9.82574C35.7277 9.71974 35.9759 9.65805 36.1959 9.64066C36.4169 9.62066 36.6103 9.63825 36.776 9.69342C36.9436 9.74786 37.0853 9.83599 37.201 9.95778C37.316 10.0777 37.4067 10.2242 37.4731 10.3973C37.5257 10.5347 37.5548 10.6724 37.5602 10.8106C37.5676 10.948 37.5518 11.0814 37.5129 11.2106C37.4759 11.3392 37.4153 11.4628 37.3313 11.5813C37.2491 11.6991 37.1448 11.807 37.0184 11.9051C37.0781 11.9146 37.1363 11.9311 37.1928 11.9548C37.2486 11.9765 37.3036 12.0073 37.3576 12.047L38.9569 13.1625Z" fill="white"/>
<path d="M42.3349 11.5575L42.5074 12.2059L40.0335 12.8642L38.9098 8.64075L39.6955 8.4317L40.6467 12.0067L42.3349 11.5575Z" fill="white"/>
<path d="M48.544 10.2929C48.5881 10.2884 48.6289 10.3014 48.6665 10.332L49.0208 10.6449C48.8669 10.8815 48.6667 11.0713 48.4201 11.2142C48.1755 11.3568 47.8729 11.4468 47.5121 11.4839C47.1894 11.5171 46.8931 11.492 46.6232 11.4083C46.3553 11.3245 46.12 11.1938 45.9174 11.0162C45.7147 10.8385 45.5503 10.6185 45.424 10.356C45.2997 10.0933 45.221 9.80063 45.1877 9.47793C45.1541 9.15123 45.1754 8.84722 45.2518 8.5659C45.328 8.28258 45.4501 8.033 45.6183 7.81718C45.7885 7.60114 45.9993 7.42549 46.2507 7.29021C46.5019 7.15294 46.7869 7.06789 47.1056 7.03507C47.4222 7.00245 47.7082 7.02566 47.9635 7.10471C48.2207 7.18354 48.4442 7.29826 48.6339 7.44888L48.4021 7.85255C48.3885 7.87826 48.3696 7.90147 48.3454 7.92219C48.3232 7.94271 48.2901 7.95524 48.246 7.95978C48.2159 7.96287 48.184 7.95806 48.1503 7.94532C48.1164 7.93059 48.0791 7.91315 48.0386 7.89302C47.9978 7.87089 47.9508 7.84737 47.8976 7.82247C47.8444 7.79756 47.7835 7.77649 47.7149 7.75925C47.6461 7.74001 47.5667 7.72691 47.4769 7.71996C47.3888 7.71079 47.2877 7.71209 47.1735 7.72386C46.979 7.74388 46.8043 7.79733 46.6491 7.8842C46.4958 7.96886 46.3678 8.08332 46.2652 8.22758C46.1624 8.36983 46.0887 8.53947 46.0442 8.73648C45.9994 8.93149 45.9895 9.15026 46.0145 9.39278C46.0397 9.63731 46.0962 9.85127 46.1839 10.0347C46.2737 10.2179 46.3844 10.3685 46.5161 10.4866C46.6478 10.6047 46.7974 10.6906 46.9649 10.7442C47.1323 10.7958 47.3082 10.8122 47.4926 10.7932C47.6028 10.7818 47.7014 10.7656 47.7884 10.7445C47.8773 10.7232 47.9575 10.6957 48.029 10.662C48.1025 10.6281 48.1703 10.5877 48.2323 10.5408C48.2961 10.4917 48.358 10.4336 48.4179 10.3667C48.4361 10.3466 48.4557 10.3304 48.4767 10.3181C48.4975 10.3038 48.5199 10.2954 48.544 10.2929Z" fill="white"/>
<path d="M51.1581 7.53176L51.1384 8.74358L52.6676 8.7684L52.6574 9.39395L51.1283 9.36913L51.1082 10.6051L53.0483 10.6366L53.0378 11.2863L50.2817 11.2416L50.3527 6.87181L53.1087 6.91655L53.0982 7.56325L51.1581 7.53176Z" fill="white"/>
<path d="M55.9814 9.23313C56.1335 9.25073 56.2678 9.247 56.3843 9.22194C56.5028 9.19711 56.6019 9.15584 56.6816 9.09812C56.7635 9.03864 56.8278 8.96494 56.8745 8.87704C56.9212 8.78914 56.9509 8.69014 56.9637 8.58006C56.9891 8.35988 56.9356 8.1823 56.8032 8.0473C56.6727 7.91253 56.4584 7.82789 56.1602 7.79339L55.6438 7.73364L55.477 9.17477L55.9814 9.23313ZM57.7957 11.7493L57.0661 11.6649C56.928 11.6489 56.8342 11.5833 56.7847 11.468L56.0328 9.97233C56.0048 9.91635 55.971 9.87492 55.9316 9.84804C55.8941 9.82139 55.8353 9.80344 55.7552 9.79417L55.41 9.75422L55.2137 11.4506L54.4061 11.3571L54.9084 7.0157L56.2324 7.1689C56.5266 7.20294 56.7753 7.26314 56.9782 7.34951C57.1835 7.43411 57.3468 7.53921 57.4681 7.66481C57.5915 7.79064 57.6763 7.93433 57.7225 8.09586C57.769 8.25539 57.7815 8.42723 57.7602 8.61137C57.7433 8.75748 57.7053 8.89305 57.6462 9.01805C57.5891 9.14329 57.5134 9.25421 57.4191 9.35079C57.3268 9.44761 57.2159 9.52911 57.0865 9.59527C56.9592 9.66167 56.8168 9.70909 56.6593 9.73753C56.7079 9.77357 56.7518 9.81516 56.791 9.86228C56.8304 9.90741 56.8648 9.96008 56.8944 10.0203L57.7957 11.7493Z" fill="white"/>
<path d="M62.5744 9.02015L61.2896 8.72753L60.4674 12.3375L59.6747 12.157L60.4969 8.54699L59.212 8.25437L59.3603 7.6031L62.7228 8.36888L62.5744 9.02015Z" fill="white"/>
<path d="M63.7111 13.2602L62.934 13.0112L64.2678 8.84931L65.0449 9.09837L63.7111 13.2602Z" fill="white"/>
<path d="M67.4438 10.668L66.9479 11.8628L68.4609 12.4907L68.2118 13.0909L66.6988 12.463L66.0165 14.1072L65.2627 13.7944L66.938 9.75784L69.4839 10.8144L69.236 11.4118L67.4438 10.668Z" fill="white"/>
<path d="M69.7229 15.8318L68.9979 15.4573L71.0037 11.5744L71.7287 11.9489L69.7229 15.8318Z" fill="white"/>
<path d="M73.8396 13.8948L73.1954 14.9214L74.4908 15.7343L74.1583 16.2642L72.8629 15.4513L72.2058 16.4984L73.8493 17.5298L73.5039 18.0802L71.1692 16.615L73.4922 12.9132L75.827 14.3783L75.4832 14.9262L73.8396 13.8948Z" fill="white"/>
<path d="M79.0053 19.584C78.8043 19.8334 78.5782 20.029 78.3269 20.1707C78.0756 20.3124 77.8139 20.3978 77.542 20.4271C77.27 20.4563 76.9946 20.4272 76.7158 20.3397C76.4369 20.2522 76.1681 20.1041 75.9092 19.8955L74.6124 18.8507L77.3545 15.4476L78.6513 16.4924C78.9101 16.701 79.1114 16.933 79.2549 17.1884C79.3997 17.4422 79.4867 17.7051 79.516 17.9771C79.5465 18.2475 79.5193 18.5206 79.4343 18.7963C79.3493 19.0719 79.2063 19.3345 79.0053 19.584ZM78.3558 19.0606C78.5062 18.8739 78.6157 18.6866 78.6844 18.4986C78.7558 18.3104 78.7856 18.1273 78.7736 17.9495C78.7645 17.7714 78.7154 17.6011 78.6262 17.4387C78.5387 17.2776 78.4118 17.1301 78.2455 16.9961L77.5841 16.4632L75.6537 18.859L76.315 19.3919C76.4813 19.5259 76.6525 19.6186 76.8285 19.6698C77.0062 19.7224 77.1823 19.7349 77.3571 19.7076C77.5347 19.6798 77.7072 19.6119 77.8747 19.5036C78.045 19.395 78.2053 19.2473 78.3558 19.0606Z" fill="white"/>
<path d="M45.789 92.1526L45.4799 93.8935C45.2331 94.0154 44.979 94.0921 44.7177 94.1234C44.4586 94.1531 44.1883 94.143 43.9066 94.0929C43.5554 94.0306 43.2467 93.9195 42.9804 93.7596C42.7161 93.6001 42.5 93.4052 42.3322 93.1749C42.1663 92.9448 42.0528 92.6853 41.9916 92.3961C41.9304 92.1069 41.9282 91.8026 41.9849 91.4832C42.0423 91.1598 42.1475 90.8726 42.3006 90.6214C42.4537 90.3703 42.6437 90.1646 42.8706 90.0043C43.0996 89.8445 43.3615 89.7354 43.6562 89.6773C43.951 89.6191 44.27 89.6205 44.6132 89.6815C44.7878 89.7125 44.948 89.7552 45.0939 89.8098C45.2417 89.8647 45.3757 89.9284 45.4958 90.0009C45.6183 90.0717 45.7269 90.1514 45.8217 90.2399C45.9165 90.3283 46.0012 90.4222 46.0757 90.5213L45.782 90.8437C45.7361 90.8949 45.6832 90.9223 45.6232 90.926C45.5635 90.9277 45.5037 90.9017 45.4436 90.8481C45.3848 90.7987 45.3261 90.7494 45.2673 90.7001C45.2085 90.6508 45.1409 90.605 45.0645 90.5628C44.9901 90.5209 44.9039 90.4821 44.8059 90.4462C44.7098 90.4108 44.5964 90.3814 44.4654 90.3582C44.2532 90.3205 44.0544 90.322 43.8691 90.3628C43.6858 90.4039 43.5218 90.4802 43.3772 90.5916C43.2326 90.703 43.111 90.8462 43.0124 91.021C42.9138 91.1959 42.8441 91.3984 42.8032 91.6285C42.7595 91.8745 42.7551 92.1009 42.7901 92.3076C42.8273 92.5128 42.8974 92.694 43.0004 92.8515C43.1058 93.0073 43.2424 93.137 43.4102 93.2404C43.5784 93.3419 43.7736 93.4124 43.9958 93.4519C44.1545 93.4801 44.2994 93.4884 44.4304 93.4769C44.5613 93.4653 44.6915 93.4414 44.8207 93.405L44.9592 92.6253L44.4176 92.5291C44.366 92.52 44.3278 92.4989 44.3029 92.4658C44.2805 92.4311 44.2729 92.3929 44.2803 92.3513L44.3606 91.8989L45.789 92.1526Z" fill="white"/>
<path d="M51.6967 92.5253C51.6833 92.8454 51.6175 93.1401 51.4993 93.4094C51.3832 93.6768 51.2244 93.9061 51.0228 94.0973C50.8212 94.2885 50.5821 94.4348 50.3056 94.5361C50.0292 94.6355 49.7249 94.6782 49.3927 94.6642C49.0626 94.6504 48.7639 94.5824 48.4968 94.4603C48.2297 94.3362 48.0027 94.1704 47.8158 93.9629C47.6309 93.7555 47.4908 93.5137 47.3955 93.2374C47.3003 92.9592 47.2594 92.66 47.2728 92.3399C47.2862 92.0198 47.352 91.7261 47.47 91.4588C47.5882 91.1895 47.7481 90.9592 47.9497 90.768C48.1534 90.5769 48.3934 90.4317 48.6698 90.3323C48.9463 90.231 49.2496 90.1872 49.5798 90.2011C49.8012 90.2104 50.0085 90.2453 50.2016 90.3058C50.3947 90.3643 50.5709 90.4443 50.73 90.5457C50.8892 90.6452 51.0304 90.765 51.1535 90.9053C51.2788 91.0437 51.3833 91.1973 51.467 91.3662C51.5507 91.535 51.6116 91.7171 51.6498 91.9123C51.69 92.1076 51.7056 92.3119 51.6967 92.5253ZM50.8663 92.4905C50.8763 92.2509 50.8531 92.0352 50.7966 91.8432C50.7402 91.6493 50.6554 91.4834 50.5422 91.3455C50.429 91.2077 50.2883 91.1 50.1201 91.0223C49.954 90.9448 49.7642 90.9015 49.5508 90.8926C49.3374 90.8836 49.1437 90.9108 48.9696 90.9741C48.7975 91.0375 48.6483 91.1331 48.522 91.2609C48.3976 91.3888 48.2992 91.547 48.2268 91.7355C48.1545 91.9221 48.1133 92.1351 48.1032 92.3747C48.0932 92.6143 48.1164 92.831 48.1728 93.025C48.2293 93.2169 48.3141 93.3818 48.4273 93.5196C48.5426 93.6556 48.6833 93.7623 48.8495 93.8398C49.0177 93.9175 49.2084 93.9608 49.4218 93.9697C49.6352 93.9786 49.828 93.9514 50 93.8881C50.1741 93.8248 50.3232 93.7302 50.4475 93.6043C50.5719 93.4764 50.6702 93.3192 50.7426 93.1327C50.815 92.9441 50.8562 92.7301 50.8663 92.4905Z" fill="white"/>
<path d="M56.0214 93.7502L56.0719 94.4192L53.5192 94.6116L53.1907 90.2536L54.0014 90.1925L54.2795 93.8815L56.0214 93.7502Z" fill="white"/>
<path d="M61.2184 91.3251C61.2789 91.6397 61.2821 91.9386 61.2278 92.222C61.1736 92.5053 61.0698 92.7602 60.9164 92.9867C60.763 93.2132 60.5628 93.4046 60.3158 93.5608C60.0689 93.7171 59.7822 93.8266 59.4557 93.8894L57.8204 94.2041L56.9947 89.9124L58.63 89.5978C58.9565 89.535 59.2636 89.5313 59.5513 89.5868C59.8386 89.6402 60.0955 89.7437 60.3219 89.8971C60.5481 90.0485 60.7389 90.2457 60.8944 90.4887C61.0499 90.7317 61.1579 91.0105 61.2184 91.3251ZM60.3992 91.4827C60.3539 91.2472 60.2817 91.0426 60.1826 90.8688C60.0851 90.6926 59.9647 90.5516 59.8212 90.4459C59.6793 90.3377 59.5176 90.2652 59.3361 90.2283C59.1566 90.191 58.962 90.1926 58.7522 90.2329L57.9182 90.3934L58.4995 93.4148L59.3335 93.2543C59.5433 93.214 59.7246 93.1432 59.8774 93.0419C60.0323 92.9403 60.1557 92.814 60.2477 92.6629C60.3413 92.5095 60.4009 92.3339 60.4265 92.1361C60.4536 91.9359 60.4445 91.7181 60.3992 91.4827Z" fill="white"/>
<path d="M76.3886 41.0584V39.3832H75.7646V39.1576H77.267V39.3832H76.6382V41.0536H76.3886V41.0584Z" fill="#725020"/>
<path d="M77.5194 41.0585V39.1625H77.8986L78.3474 40.5041C78.3906 40.6313 78.417 40.7225 78.4386 40.7849C78.4602 40.7153 78.4938 40.6121 78.5394 40.4801L78.9738 39.1625H79.3242V41.0585H79.0818V39.4721L78.5298 41.0585H78.3042L77.757 39.4433V41.0585H77.5146H77.5194Z" fill="#725020"/>
<path d="M51.2437 43.6793C48.7765 43.6793 46.7773 41.6801 46.7773 39.2129C46.7773 36.7457 48.7765 34.7465 51.2437 34.7465C53.7109 34.7465 55.7101 36.7457 55.7101 39.2129C55.7053 41.6777 53.7085 43.6745 51.2437 43.6793ZM51.2437 36.0713C49.4989 36.0713 48.0853 37.4849 48.0853 39.2297C48.0853 40.9745 49.4989 42.3881 51.2437 42.3881C52.9885 42.3881 54.4021 40.9745 54.4021 39.2297C54.4021 37.4849 52.9885 36.0713 51.2437 36.0713Z" fill="#725020"/>
<path d="M42.2174 60.7405C42.2174 62.1589 42.551 63.2701 43.2206 64.0741C43.8878 64.8805 44.7782 65.2813 45.8894 65.2813C47.0006 65.2813 48.0326 64.9021 48.983 64.1461L49.2254 64.3141L48.695 65.6917C47.6678 66.4165 46.3406 66.7789 44.7182 66.7789C42.839 66.7789 41.3678 66.2269 40.307 65.1229C39.2462 64.0189 38.7158 62.4853 38.7158 60.5197C38.7158 58.7797 39.239 57.3637 40.283 56.2669C41.327 55.1725 42.7334 54.6229 44.5022 54.6229C46.1582 54.6229 47.4278 55.0813 48.311 56.0005C49.1942 56.9197 49.6358 58.2397 49.6358 59.9629C49.6358 60.3013 49.6286 60.5581 49.6118 60.7357H42.2198L42.2174 60.7405ZM42.2174 59.5573H46.2998C46.2998 59.4613 46.307 59.3485 46.3238 59.2189V58.9765C46.3238 56.7709 45.695 55.6669 44.4398 55.6669C42.9566 55.6669 42.2174 56.8909 42.2174 59.3389V59.5573Z" fill="#725020"/>
<path d="M57.1863 64.9696C56.4783 66.1768 55.3911 66.7816 53.9247 66.7816C52.9095 66.7816 52.1127 66.484 51.5319 65.8888C50.9511 65.2936 50.6631 64.4728 50.6631 63.424C50.6631 61.9576 51.5079 60.9352 53.1999 60.3544C53.9079 60.1288 54.6207 59.9032 55.3383 59.6776C56.0559 59.452 56.6151 59.2024 57.0183 58.9288C57.0351 58.8328 57.0423 58.696 57.0423 58.5184C57.0423 57.7936 56.8335 57.2128 56.4135 56.7784C55.9935 56.344 55.4391 56.1256 54.7455 56.1256C53.6823 56.1256 52.7799 56.7448 52.0383 57.9856C51.8295 57.3424 51.6519 56.8264 51.5079 56.44C52.8927 55.216 54.3255 54.604 55.8087 54.604C58.8039 54.604 60.3015 55.8928 60.3015 58.4704V58.5904L60.2295 63.2536C60.2295 64.1728 60.3183 64.7752 60.4959 65.0656C60.7047 65.404 61.1487 65.572 61.8255 65.572H61.8975V66.1768C61.0431 66.5152 60.1983 66.6832 59.3607 66.6832C58.1847 66.6832 57.4599 66.112 57.1863 64.9672V64.9696ZM57.0423 60.1384C55.9479 60.364 55.1535 60.7072 54.6639 61.1656C54.1743 61.624 53.9271 62.272 53.9271 63.1096C53.9271 64.4944 54.4191 65.188 55.4031 65.188C56.4975 65.188 57.0447 64.4392 57.0447 62.9416V60.1384H57.0423Z" fill="#725020"/>
<path d="M38.3512 49.5617C37.372 48.8081 35.86 48.4313 33.8152 48.4313C33.1984 48.4313 32.404 48.4481 31.4344 48.4841C30.4648 48.5201 29.7952 48.5369 29.4256 48.5369C28.8256 48.5369 28.2088 48.5009 27.5752 48.4313C27.7864 50.8289 27.892 53.8433 27.892 57.4745C27.892 61.1057 27.7864 64.1993 27.5752 66.4913H31.9648C31.7704 64.2689 31.6744 62.9561 31.6744 62.5505V58.6625H32.548C37.396 58.6625 39.82 56.8289 39.82 53.1641C39.82 51.5153 39.3304 50.3153 38.3536 49.5593L38.3512 49.5617ZM34.708 56.3105C34.0864 56.9273 33.0736 57.2369 31.6744 57.2369V52.8737C31.6744 52.0625 31.7344 51.0833 31.8592 49.9385C32.2432 49.9025 32.5168 49.8857 32.6728 49.8857C34.6504 49.8857 35.6416 51.0233 35.6416 53.2961C35.6416 54.6881 35.3296 55.6937 34.708 56.3105Z" fill="#725020"/>
<path d="M70.1508 54.628C68.2668 54.628 67.026 55.756 66.4308 58.0096H66.3108C66.3108 57.3496 66.3516 56.3176 66.4308 54.916H63.0732C63.186 56.1712 63.2412 58.0984 63.2412 60.6904C63.2412 62.9608 63.1836 64.8952 63.0732 66.4888H66.6492C66.5052 64.8616 66.4308 63.1144 66.4308 61.2448C66.4308 58.9576 67.1868 57.8128 68.7012 57.8128C69.1044 57.8128 69.6276 57.9328 70.2708 58.1752V54.6232H70.1508V54.628Z" fill="#725020"/>
<path d="M74.9105 48.3953H71.3105C71.4401 50.9681 71.5049 54.0017 71.5049 57.4913C71.5049 60.9809 71.4401 63.8057 71.3105 66.4913H74.9105C74.7809 63.9185 74.7161 60.8849 74.7161 57.3953C74.7161 53.9057 74.7809 51.0809 74.9105 48.3953Z" fill="#725020"/>
<path d="M68.836 36.436L62.2072 31.1968L51.244 22.5328L23.1904 44.7064H31.8112L51.244 29.4328L70.6768 44.7064H79.2952L68.836 36.436Z" fill="#725020"/>
</g>
<defs>
<filter id="filter0_d_6688_17460" x="-0.000452638" y="-3.23057e-05" width="104.536" height="104.536" filterUnits="userSpaceOnUse" color-interpolation-filters="sRGB">
<feFlood flood-opacity="0" result="BackgroundImageFix"/>
<feColorMatrix in="SourceAlpha" type="matrix" values="0 0 0 0 0 0 0 0 0 0 0 0 0 0 0 0 0 0 127 0" result="hardAlpha"/>
<feOffset dx="1.00666" dy="1.50879"/>
<feGaussianBlur stdDeviation="2.01332"/>
<feColorMatrix type="matrix" values="0 0 0 0 0 0 0 0 0 0 0 0 0 0 0 0 0 0 0.25 0"/>
<feBlend mode="normal" in2="BackgroundImageFix" result="effect1_dropShadow_6688_17460"/>
<feBlend mode="normal" in="SourceGraphic" in2="effect1_dropShadow_6688_17460" result="shape"/>
</filter>
<filter id="filter1_d_6688_17460" x="12.5572" y="12.5376" width="79.3455" height="79.3455" filterUnits="userSpaceOnUse" color-interpolation-filters="sRGB">
<feFlood flood-opacity="0" result="BackgroundImageFix"/>
<feColorMatrix in="SourceAlpha" type="matrix" values="0 0 0 0 0 0 0 0 0 0 0 0 0 0 0 0 0 0 127 0" result="hardAlpha"/>
<feOffset dx="0.968221" dy="1.45113"/>
<feGaussianBlur stdDeviation="1.93404"/>
<feColorMatrix type="matrix" values="0 0 0 0 0 0 0 0 0 0 0 0 0 0 0 0 0 0 0.2 0"/>
<feBlend mode="normal" in2="BackgroundImageFix" result="effect1_dropShadow_6688_17460"/>
<feBlend mode="normal" in="SourceGraphic" in2="effect1_dropShadow_6688_17460" result="shape"/>
</filter>
</defs>
</svg>
