<svg width="22" height="26" viewBox="0 0 22 26" fill="none" xmlns="http://www.w3.org/2000/svg">
<path d="M20.0485 4.22852H1.86545C1.24941 4.22852 0.75 4.72792 0.75 5.34396V23.6348C0.75 24.2508 1.24941 24.7502 1.86545 24.7502H20.0485C20.6646 24.7502 21.164 24.2508 21.164 23.6348V5.34396C21.164 4.72792 20.6646 4.22852 20.0485 4.22852Z" stroke="#828282" stroke-width="1.5" stroke-miterlimit="10"/>
<path d="M3.42487 0.75H18.5015C19.1372 0.75 19.6529 1.26574 19.6529 1.90142V4.21627H2.27344V1.90142C2.27344 1.26574 2.78918 0.75 3.42487 0.75Z" stroke="#828282" stroke-width="1.5" stroke-miterlimit="10"/>
<path d="M10.9561 8.27062C11.592 8.27062 12.1076 7.75511 12.1076 7.1192C12.1076 6.48328 11.592 5.96777 10.9561 5.96777C10.3202 5.96777 9.80469 6.48328 9.80469 7.1192C9.80469 7.75511 10.3202 8.27062 10.9561 8.27062Z" fill="#828282"/>
<path d="M16.8936 8.27062C17.5295 8.27062 18.0451 7.75511 18.0451 7.1192C18.0451 6.48328 17.5295 5.96777 16.8936 5.96777C16.2577 5.96777 15.7422 6.48328 15.7422 7.1192C15.7422 7.75511 16.2577 8.27062 16.8936 8.27062Z" fill="#828282"/>
<path d="M5.43854 8.27062C6.07447 8.27062 6.58998 7.75511 6.58998 7.1192C6.58998 6.48328 6.07447 5.96777 5.43854 5.96777C4.80262 5.96777 4.28711 6.48328 4.28711 7.1192C4.28711 7.75511 4.80262 8.27062 5.43854 8.27062Z" fill="#828282"/>
<path d="M0.75 9.98535H21.176" stroke="#828282" stroke-width="1.5" stroke-miterlimit="10"/>
<path d="M16.5688 13.415H5.36628C4.73036 13.415 4.21484 13.9305 4.21484 14.5665V20.1317C4.21484 20.7676 4.73036 21.2831 5.36628 21.2831H16.5688C17.2047 21.2831 17.7202 20.7676 17.7202 20.1317V14.5665C17.7202 13.9305 17.2047 13.415 16.5688 13.415Z" stroke="#828282" stroke-width="1.5" stroke-miterlimit="10"/>
<path d="M8.00631 16.0068C8.54604 16.4866 8.65399 17.3142 8.47408 17.9858C8.30616 18.5736 7.92235 19.0773 7.85038 19.701C7.80241 20.2047 7.95833 20.7205 8.24619 21.1283C8.28217 21.1882 8.33015 21.2482 8.37813 21.2962" stroke="#828282" stroke-width="1.5" stroke-linecap="round" stroke-linejoin="round"/>
<path d="M10.7778 16.0068C11.3175 16.4866 11.4255 17.3142 11.2456 17.9858C11.0776 18.5736 10.6938 19.0773 10.6219 19.701C10.5739 20.2047 10.7298 20.7205 11.0177 21.1283C11.0537 21.1882 11.1016 21.2482 11.1496 21.2962" stroke="#828282" stroke-width="1.5" stroke-linecap="round" stroke-linejoin="round"/>
<path d="M13.5356 16.0068C14.0753 16.4866 14.1833 17.3142 14.0034 17.9858C13.8355 18.5736 13.4516 19.0773 13.3797 19.701C13.3317 20.2047 13.4876 20.7205 13.7755 21.1283C13.8115 21.1882 13.8594 21.2482 13.9074 21.2962" stroke="#828282" stroke-width="1.5" stroke-linecap="round" stroke-linejoin="round"/>
</svg>
