<svg width="27" height="22" viewBox="0 0 27 22" fill="none" xmlns="http://www.w3.org/2000/svg">
<path d="M7.95312 4.55545V3.76364L14.2286 0.75V21.1009L7.95312 18.0873V17.3073" stroke="#828282" stroke-width="1.5" stroke-linecap="round" stroke-linejoin="round"/>
<path d="M24.8889 6.97856C24.3689 6.97856 23.9553 6.62401 23.9553 6.62401C23.9553 6.62401 22.9626 5.84401 22.0998 6.62401C21.2371 7.40401 20.3271 6.62401 20.3271 6.62401C20.3271 6.62401 19.3344 5.84401 18.4716 6.62401C18.1053 6.95492 17.7389 7.00219 17.4316 6.95492" stroke="#828282" stroke-width="1.5" stroke-linecap="round" stroke-linejoin="round"/>
<path d="M24.8889 15.795C24.3689 15.795 23.9553 15.4404 23.9553 15.4404C23.9553 15.4404 22.9626 14.6604 22.0998 15.4404C21.2371 16.2204 20.3271 15.4404 20.3271 15.4404C20.3271 15.4404 19.3344 14.6604 18.4716 15.4404C18.1053 15.7713 17.7389 15.8186 17.4316 15.7713" stroke="#828282" stroke-width="1.5" stroke-linecap="round" stroke-linejoin="round"/>
<path d="M26.0003 11.3868C25.4803 11.3868 25.0666 11.0322 25.0666 11.0322C25.0666 11.0322 24.0739 10.2522 23.2112 11.0322C22.3484 11.8122 21.4384 11.0322 21.4384 11.0322C21.4384 11.0322 20.4457 10.2522 19.583 11.0322C19.2166 11.3631 18.8502 11.4104 18.543 11.3631" stroke="#828282" stroke-width="1.5" stroke-linecap="round" stroke-linejoin="round"/>
<path d="M2.8718 8.99945C3.30258 8.99945 3.6518 8.65024 3.6518 8.21945C3.6518 7.78867 3.30258 7.43945 2.8718 7.43945C2.44102 7.43945 2.0918 7.78867 2.0918 8.21945C2.0918 8.65024 2.44102 8.99945 2.8718 8.99945Z" fill="#828282"/>
<path d="M2.8718 13.1713C3.30258 13.1713 3.6518 12.8221 3.6518 12.3913C3.6518 11.9605 3.30258 11.6113 2.8718 11.6113C2.44102 11.6113 2.0918 11.9605 2.0918 12.3913C2.0918 12.8221 2.44102 13.1713 2.8718 13.1713Z" fill="#828282"/>
<path d="M2.8718 17.3432C3.30258 17.3432 3.6518 16.994 3.6518 16.5632C3.6518 16.1324 3.30258 15.7832 2.8718 15.7832C2.44102 15.7832 2.0918 16.1324 2.0918 16.5632C2.0918 16.994 2.44102 17.3432 2.8718 17.3432Z" fill="#828282"/>
<path d="M0.780001 6.87152C1.21078 6.87152 1.56 6.52231 1.56 6.09152C1.56 5.66074 1.21078 5.31152 0.780001 5.31152C0.349218 5.31152 0 5.66074 0 6.09152C0 6.52231 0.349218 6.87152 0.780001 6.87152Z" fill="#828282"/>
<path d="M0.780001 11.0434C1.21078 11.0434 1.56 10.6942 1.56 10.2634C1.56 9.83262 1.21078 9.4834 0.780001 9.4834C0.349218 9.4834 0 9.83262 0 10.2634C0 10.6942 0.349218 11.0434 0.780001 11.0434Z" fill="#828282"/>
<path d="M0.780001 15.2153C1.21078 15.2153 1.56 14.8661 1.56 14.4353C1.56 14.0045 1.21078 13.6553 0.780001 13.6553C0.349218 13.6553 0 14.0045 0 14.4353C0 14.8661 0.349218 15.2153 0.780001 15.2153Z" fill="#828282"/>
<path d="M4.86985 6.87152C5.30063 6.87152 5.64985 6.52231 5.64985 6.09152C5.64985 5.66074 5.30063 5.31152 4.86985 5.31152C4.43906 5.31152 4.08984 5.66074 4.08984 6.09152C4.08984 6.52231 4.43906 6.87152 4.86985 6.87152Z" fill="#828282"/>
<path d="M4.86985 11.0434C5.30063 11.0434 5.64985 10.6942 5.64985 10.2634C5.64985 9.83262 5.30063 9.4834 4.86985 9.4834C4.43906 9.4834 4.08984 9.83262 4.08984 10.2634C4.08984 10.6942 4.43906 11.0434 4.86985 11.0434Z" fill="#828282"/>
<path d="M4.86985 15.2153C5.30063 15.2153 5.64985 14.8661 5.64985 14.4353C5.64985 14.0045 5.30063 13.6553 4.86985 13.6553C4.43906 13.6553 4.08984 14.0045 4.08984 14.4353C4.08984 14.8661 4.43906 15.2153 4.86985 15.2153Z" fill="#828282"/>
<path d="M6.90305 8.99945C7.33383 8.99945 7.68305 8.65024 7.68305 8.21945C7.68305 7.78867 7.33383 7.43945 6.90305 7.43945C6.47227 7.43945 6.12305 7.78867 6.12305 8.21945C6.12305 8.65024 6.47227 8.99945 6.90305 8.99945Z" fill="#828282"/>
<path d="M6.90305 13.1713C7.33383 13.1713 7.68305 12.8221 7.68305 12.3913C7.68305 11.9605 7.33383 11.6113 6.90305 11.6113C6.47227 11.6113 6.12305 11.9605 6.12305 12.3913C6.12305 12.8221 6.47227 13.1713 6.90305 13.1713Z" fill="#828282"/>
<path d="M9.01633 11.0444C9.44711 11.0444 9.79633 10.6952 9.79633 10.2644C9.79633 9.83359 9.44711 9.48438 9.01633 9.48438C8.58555 9.48438 8.23633 9.83359 8.23633 10.2644C8.23633 10.6952 8.58555 11.0444 9.01633 11.0444Z" fill="#828282"/>
<path d="M9.01633 15.2162C9.44711 15.2162 9.79633 14.867 9.79633 14.4362C9.79633 14.0055 9.44711 13.6562 9.01633 13.6562C8.58555 13.6562 8.23633 14.0055 8.23633 14.4362C8.23633 14.867 8.58555 15.2162 9.01633 15.2162Z" fill="#828282"/>
<path d="M11.0495 8.99945C11.4803 8.99945 11.8295 8.65024 11.8295 8.21945C11.8295 7.78867 11.4803 7.43945 11.0495 7.43945C10.6187 7.43945 10.2695 7.78867 10.2695 8.21945C10.2695 8.65024 10.6187 8.99945 11.0495 8.99945Z" fill="#828282"/>
<path d="M11.0495 13.1713C11.4803 13.1713 11.8295 12.8221 11.8295 12.3913C11.8295 11.9605 11.4803 11.6113 11.0495 11.6113C10.6187 11.6113 10.2695 11.9605 10.2695 12.3913C10.2695 12.8221 10.6187 13.1713 11.0495 13.1713Z" fill="#828282"/>
<path d="M11.0495 17.3432C11.4803 17.3432 11.8295 16.994 11.8295 16.5632C11.8295 16.1324 11.4803 15.7832 11.0495 15.7832C10.6187 15.7832 10.2695 16.1324 10.2695 16.5632C10.2695 16.994 10.6187 17.3432 11.0495 17.3432Z" fill="#828282"/>
</svg>
