<svg width="22" height="24" viewBox="0 0 22 24" fill="none" xmlns="http://www.w3.org/2000/svg">
<path d="M0 20.6667V8.66667C0 8.24444 0.0944445 7.84444 0.283333 7.46667C0.472222 7.08889 0.733333 6.77778 1.06667 6.53333L9.06667 0.533333C9.53333 0.177778 10.0667 0 10.6667 0C11.2667 0 11.8 0.177778 12.2667 0.533333L20.2667 6.53333C20.6 6.77778 20.8611 7.08889 21.05 7.46667C21.2389 7.84444 21.3333 8.24444 21.3333 8.66667V20.6667C21.3333 21.4 21.0722 22.0278 20.55 22.55C20.0278 23.0722 19.4 23.3333 18.6667 23.3333H14.6667C14.2889 23.3333 13.9722 23.2056 13.7167 22.95C13.4611 22.6944 13.3333 22.3778 13.3333 22V15.3333C13.3333 14.9556 13.2056 14.6389 12.95 14.3833C12.6944 14.1278 12.3778 14 12 14H9.33333C8.95556 14 8.63889 14.1278 8.38333 14.3833C8.12778 14.6389 8 14.9556 8 15.3333V22C8 22.3778 7.87222 22.6944 7.61667 22.95C7.36111 23.2056 7.04444 23.3333 6.66667 23.3333H2.66667C1.93333 23.3333 1.30556 23.0722 0.783333 22.55C0.261111 22.0278 0 21.4 0 20.6667Z" fill="#C4C7C7"/>
</svg>
